<?xml version="1.0" encoding="UTF-8" ?>
<!DOCTYPE svg PUBLIC "-//W3C//DTD SVG 1.1//EN" "http://www.w3.org/Graphics/SVG/1.1/DTD/svg11.dtd">
<svg width="2pt" height="50pt" viewBox="0 0 2 50" version="1.1" xmlns="http://www.w3.org/2000/svg">
<path fill="#ffffff" d=" M 0.00 0.00 L 2.00 0.00 L 2.00 25.08 C 1.50 24.99 0.50 24.81 0.00 24.72 L 0.00 0.00 Z" />
<path fill="#cdebff" d=" M 0.00 24.72 C 0.50 24.81 1.50 24.99 2.00 25.08 L 2.00 31.28 C 1.50 30.90 0.50 30.16 0.00 29.78 L 0.00 24.72 Z" />
<path fill="#cdebff" d=" M 0.00 29.78 C 0.50 30.16 1.50 30.90 2.00 31.28 L 2.00 36.95 C 1.50 37.11 0.50 37.42 0.00 37.58 L 0.00 29.78 Z" />
<path fill="#ffffff" d=" M 0.00 37.58 C 0.50 37.42 1.50 37.11 2.00 36.95 L 2.00 50.00 L 0.00 50.00 L 0.00 37.58 Z" />
</svg>
