<?xml version="1.0" encoding="UTF-8" standalone="no"?>
<!-- Public domain (CC-BY-SA v2.0 if you or your laws insist), Originator: Kjell Kernen -->

<svg
   xmlns:dc="http://purl.org/dc/elements/1.1/"
   xmlns:cc="http://creativecommons.org/ns#"
   xmlns:rdf="http://www.w3.org/1999/02/22-rdf-syntax-ns#"
   xmlns:svg="http://www.w3.org/2000/svg"
   xmlns="http://www.w3.org/2000/svg"
   xmlns:sodipodi="http://sodipodi.sourceforge.net/DTD/sodipodi-0.dtd"
   xmlns:inkscape="http://www.inkscape.org/namespaces/inkscape"
   version="1.1"
   id="custom-mix"
   x="0px"
   y="0px"
   width="90"
   height="90"
   viewBox="0 0 89.999996 90"
   xml:space="preserve"
   inkscape:version="0.48.5 r10040"
   sodipodi:docname="custom.svg"><metadata
   id="metadata8"><rdf:RDF><cc:Work
       rdf:about=""><dc:format>image/svg+xml</dc:format><dc:type
         rdf:resource="http://purl.org/dc/dcmitype/StillImage" /></cc:Work></rdf:RDF></metadata><defs
   id="defs6" /><sodipodi:namedview
   pagecolor="#ffffff"
   bordercolor="#666666"
   borderopacity="1"
   objecttolerance="10"
   gridtolerance="10"
   guidetolerance="10"
   inkscape:pageopacity="0"
   inkscape:pageshadow="2"
   inkscape:window-width="1063"
   inkscape:window-height="597"
   id="namedview4"
   showgrid="false"
   inkscape:zoom="3.5132042"
   inkscape:cx="56.332904"
   inkscape:cy="45.168625"
   inkscape:window-x="436"
   inkscape:window-y="1445"
   inkscape:window-maximized="0"
   inkscape:current-layer="custom-mix" />
<path
   sodipodi:type="arc"
   style="fill:#008000;fill-opacity:1;stroke:none"
   id="path3768"
   sodipodi:cx="47.819595"
   sodipodi:cy="30.794788"
   sodipodi:rx="40.418941"
   sodipodi:ry="40.418941"
   d="m 88.238537,30.794788 a 40.418941,40.418941 0 1 1 -80.8378832,0 40.418941,40.418941 0 1 1 80.8378832,0 z"
   transform="matrix(1.1056338,0,0,1.1056338,-7.8977722,10.979051)" />
<path
   style="fill:#ffffff;fill-opacity:1;stroke:none"
   d="m 41.699825,37.199198 -12.6665,0 c 0,0 0.463052,-9.895398 6.54673,-14.089702 6.390954,-4.406151 15.131021,-4.426018 20.209472,0 7.893316,6.879255 7.028354,19.189863 0.14232,23.198196 -5.369166,3.12537 -4.076969,5.793445 -4.076969,5.793445 l -13.386734,0.04168 c 0,0 0.04851,-3.416481 0.100636,-5.123528 0.143442,-4.696852 2.689092,-6.489586 4.981208,-7.400651 5.645926,-2.244129 5.728713,-4.802983 3.558005,-6.973691 -0.817566,-0.817566 -4.633195,-1.14521 -5.408168,2.704084 -0.121721,0.60459 0,1.850163 0,1.850163 z"
   id="path2996"
   inkscape:connector-curvature="0"
   transform="translate(-2e-6,0)"
   sodipodi:nodetypes="ccsssccssssc" /><path
   sodipodi:type="arc"
   style="fill:#ffffff;fill-opacity:1;stroke:none"
   id="path3766"
   sodipodi:cx="44.97319"
   sodipodi:cy="63.243797"
   sodipodi:rx="7.9699326"
   sodipodi:ry="7.9699326"
   d="m 52.943123,63.243797 a 7.9699326,7.9699326 0 1 1 -15.939865,0 7.9699326,7.9699326 0 1 1 15.939865,0 z"
   transform="translate(0.28463844,-0.56928088)" /></svg>