<?xml version="1.0" encoding="UTF-8" standalone="no"?>
<!-- Copyright 2014.  All rights reserved.  Used with permission for Baseflight Configurator -->

<svg
   xmlns:dc="http://purl.org/dc/elements/1.1/"
   xmlns:cc="http://creativecommons.org/ns#"
   xmlns:rdf="http://www.w3.org/1999/02/22-rdf-syntax-ns#"
   xmlns:svg="http://www.w3.org/2000/svg"
   xmlns="http://www.w3.org/2000/svg"
   xmlns:sodipodi="http://sodipodi.sourceforge.net/DTD/sodipodi-0.dtd"
   xmlns:inkscape="http://www.inkscape.org/namespaces/inkscape"
   version="1.1"
   id="hex6x-mix"
   x="0px"
   y="0px"
   width="124.26px"
   height="112.78px"
   viewBox="6.64 7.57 124.26 112.78"
   xml:space="preserve"
   inkscape:version="0.48.5 r10040"
   sodipodi:docname="hex_x.svg"><metadata
   id="metadata44"><rdf:RDF><cc:Work
       rdf:about=""><dc:format>image/svg+xml</dc:format><dc:type
         rdf:resource="http://purl.org/dc/dcmitype/StillImage" /></cc:Work></rdf:RDF></metadata><defs
   id="defs42" /><sodipodi:namedview
   pagecolor="#ffffff"
   bordercolor="#666666"
   borderopacity="1"
   objecttolerance="10"
   gridtolerance="10"
   guidetolerance="10"
   inkscape:pageopacity="0"
   inkscape:pageshadow="2"
   inkscape:window-width="911"
   inkscape:window-height="545"
   id="namedview40"
   showgrid="false"
   inkscape:zoom="2.0925697"
   inkscape:cx="32.285966"
   inkscape:cy="57.034215"
   inkscape:window-x="211"
   inkscape:window-y="1487"
   inkscape:window-maximized="0"
   inkscape:current-layer="hex6x-mix" />







<path
   d="m 89.952129,79.428861 -9.052099,7.092254 c 3.042631,2.295509 6.074435,4.601845 9.117066,6.897354 0,0 -0.04331,-2.782763 -0.06497,-4.16873 3.670648,0.552221 4.753435,0.552221 7.817722,3.399951 1.147754,-1.580869 2.284682,-3.172566 3.432442,-4.753435 -4.417778,-3.843894 -5.522221,-4.038796 -11.315131,-4.493566 0.02166,-1.321 0.06497,-3.973828 0.06497,-3.973828 z"
   id="path3128"
   inkscape:connector-curvature="0"
   style="fill:#0000ff;fill-opacity:1;stroke:#000000;stroke-width:0.01082787;stroke-opacity:0" /><path
   d="m 89.952129,79.428861 -9.052099,7.092254 c 3.042631,2.295509 6.074435,4.601845 9.117066,6.897354 0,0 -0.04331,-2.782763 -0.06497,-4.16873 3.670648,0.552221 4.753435,0.552221 7.817722,3.399951 1.147754,-1.580869 2.284679,-3.172566 3.432439,-4.753435 -4.417775,-3.843894 -5.522218,-4.038796 -11.315128,-4.493566 0.02166,-1.321 0.06497,-3.973828 0.06497,-3.973828 z"
   id="path3130"
   inkscape:connector-curvature="0"
   style="fill:#0000ff;fill-opacity:1;stroke:#ffffff;stroke-width:1.00000000999999990;stroke-miterlimit:4;stroke-dasharray:none;stroke-opacity:1" /><path
   d="m 76.742128,109.25964 7.135566,-9.279482 c 0,0 -2.69614,0 -4.049623,0 -0.281525,-3.681476 1.884049,-5.84705 2.988492,-7.904345 -1.52673,-1.147755 -3.064287,-2.295509 -4.591017,-3.443263 -3.010148,3.334984 -3.995484,5.284001 -4.461083,11.347608 -1.321,-0.07579 -3.963,-0.227385 -3.963,-0.227385 l 6.940665,9.506867 z"
   id="path3135"
   inkscape:connector-curvature="0"
   style="fill:#0000ff;fill-opacity:1;stroke:#000000;stroke-width:0.01082787;stroke-opacity:0" /><path
   d="m 76.742128,109.25964 7.135566,-9.279482 -4.049623,0 c -0.281525,-3.681476 1.884049,-5.84705 2.988492,-7.904345 -1.52673,-1.147755 -3.064287,-2.295509 -4.591017,-3.443263 -3.010148,3.334984 -3.995484,5.284001 -4.461083,11.347608 l -3.963,-0.227385 6.940665,9.506867 z"
   id="path3137"
   inkscape:connector-curvature="0"
   style="fill:#0000ff;fill-opacity:1;stroke:#ffffff;stroke-width:1.00000000999999990;stroke-miterlimit:4;stroke-dasharray:none;stroke-opacity:1" /><path
   d="m 78.91853,111.66343 c 4.428598,3.47575 6.30182,4.52605 11.228501,4.47191 0,1.29934 0,3.89803 0,3.89803 l 9.398591,-6.87569 c 0,0 -6.496722,-4.73178 -9.593493,-7.10309 -0.108279,1.31018 0,2.47959 0,3.93052 -3.410779,-0.0108 -4.731779,-1.46176 -7.482058,-3.02098 -1.288517,1.51591 -2.263025,3.1834 -3.551541,4.6993 z"
   id="path3142"
   inkscape:connector-curvature="0"
   style="fill:#0000ff;fill-opacity:1;stroke:#000000;stroke-width:0.01082787;stroke-opacity:0" /><path
   d="m 78.91853,111.66343 c 4.428598,3.47575 6.30182,4.52605 11.228501,4.47191 l 0,3.89803 9.398591,-6.87569 c 0,0 -6.496722,-4.73178 -9.593493,-7.10309 -0.108279,1.31018 0,2.47959 0,3.93052 -3.410779,-0.0108 -4.731779,-1.46176 -7.482058,-3.02098 -1.288517,1.51591 -2.263025,3.1834 -3.551541,4.6993 z"
   id="path3144"
   inkscape:connector-curvature="0"
   style="fill:#0000ff;fill-opacity:1;stroke:#ffffff;stroke-width:1.00000000999999990;stroke-miterlimit:4;stroke-dasharray:none;stroke-opacity:1" /><path
   d="m 102.13348,110.98127 c -1.57004,-1.14775 -3.421604,-2.50123 -4.991645,-3.64899 2.024811,-2.45792 3.270015,-4.41777 3.237535,-7.547024 -1.450937,0 -4.157904,-0.03248 -4.157904,-0.03248 l 7.189704,-9.669288 c 0,0 4.94834,6.561689 7.24385,9.734255 -1.29935,0 -2.93436,0.04331 -4.2337,0.04331 0.1949,4.017137 -0.70381,7.265497 -4.28784,11.120217 z"
   id="path3149"
   inkscape:connector-curvature="0"
   style="fill:#0000ff;fill-opacity:1;stroke:#000000;stroke-width:0.01082787;stroke-opacity:0" /><path
   d="m 102.13348,110.98127 c -1.57004,-1.14775 -3.421604,-2.50123 -4.991645,-3.64899 2.024811,-2.45792 3.270015,-4.41777 3.237535,-7.547024 -1.450937,0 -4.157904,-0.03248 -4.157904,-0.03248 l 7.189704,-9.669288 c 0,0 4.94834,6.561689 7.24385,9.734255 -1.29935,0 -2.93436,0.04331 -4.2337,0.04331 0.1949,4.017139 -0.70381,7.265499 -4.28784,11.120219 z"
   id="path3151"
   inkscape:connector-curvature="0"
   style="fill:#0000ff;fill-opacity:1;stroke:#ffffff;stroke-width:1.00000000999999990;stroke-miterlimit:4;stroke-dasharray:none;stroke-opacity:1" /><path
   sodipodi:type="arc"
   style="fill:#000000;fill-opacity:1"
   id="path4033"
   sodipodi:cx="64.15448"
   sodipodi:cy="66.176758"
   sodipodi:rx="1.3039528"
   sodipodi:ry="1.3039528"
   d="m 65.458433,66.176758 a 1.3039528,1.3039528 0 1 1 -2.607906,0 1.3039528,1.3039528 0 1 1 2.607906,0 z"
   transform="translate(25.950066,34.06741)"
   inkscape:transform-center-y="1.3039528" /><path
   inkscape:connector-curvature="0"
   style="fill:#008000;fill-opacity:1;fill-rule:nonzero;stroke:#000000;stroke-width:0.03543307px;stroke-linecap:butt;stroke-linejoin:miter;stroke-miterlimit:4;stroke-opacity:1;stroke-dasharray:none"
   d="m 109.89515,84.275833 -9.14173,-7.15748 c 3.08267,-2.30315 6.12992,-4.641733 9.21259,-6.944882 0,0 -0.0709,2.799212 -0.0709,4.216535 3.68504,-0.566929 4.78347,-0.566929 7.86615,-3.437008 1.16929,1.594489 2.30315,3.188977 3.47244,4.783465 -4.46457,3.897638 -5.56299,4.074803 -11.40945,4.535433 0,1.346457 0.0709,4.003937 0.0709,4.003937 z"
   id="path3071" /><path
   inkscape:connector-curvature="0"
   style="fill:#008000;fill-opacity:1;fill-rule:nonzero;stroke:#ffffff;stroke-width:1.00000000999999990;stroke-miterlimit:4;stroke-dasharray:none;stroke-opacity:1"
   d="m 109.89515,84.275833 -9.14173,-7.15748 c 3.08267,-2.30315 6.12992,-4.641733 9.21259,-6.944882 0,0 -0.0709,2.799212 -0.0709,4.216535 3.68504,-0.566929 4.78347,-0.566929 7.86615,-3.437008 1.16929,1.594489 2.30315,3.188977 3.47244,4.783465 -4.46457,3.897638 -5.56299,4.074803 -11.40945,4.535433 0,1.346457 0.0709,4.003937 0.0709,4.003937 z"
   id="path3073" /><path
   inkscape:connector-curvature="0"
   style="fill:#008000;fill-opacity:1;fill-rule:nonzero;stroke:#000000;stroke-width:0.03543307px;stroke-linecap:butt;stroke-linejoin:miter;stroke-miterlimit:4;stroke-opacity:1;stroke-dasharray:none"
   d="m 96.53688,54.193155 7.22835,9.354331 -4.11024,0 c -0.283464,3.720473 1.91339,5.88189 3.01181,7.972442 -1.52362,1.169291 -3.082676,2.303149 -4.606298,3.472441 -3.047244,-3.366142 -4.03937,-5.314961 -4.5,-11.444883 l -4.003937,0.212599 6.980315,-9.56693 z"
   id="path3075" /><path
   inkscape:connector-curvature="0"
   style="fill:#008000;fill-opacity:1;fill-rule:nonzero;stroke:#ffffff;stroke-width:1.00000000999999990;stroke-miterlimit:4;stroke-dasharray:none;stroke-opacity:1"
   d="m 96.53688,54.193155 7.22835,9.354331 -4.11024,0 c -0.283464,3.720473 1.91339,5.88189 3.01181,7.972442 -1.52362,1.169291 -3.082676,2.303149 -4.606298,3.472441 -3.047244,-3.366142 -4.03937,-5.314961 -4.5,-11.444883 l -4.003937,0.212599 6.980315,-9.56693 z"
   id="path3077" /><path
   inkscape:connector-curvature="0"
   style="fill:#008000;fill-opacity:1;fill-rule:nonzero;stroke:#000000;stroke-width:0.03543307px;stroke-linecap:butt;stroke-linejoin:miter;stroke-miterlimit:4;stroke-opacity:1;stroke-dasharray:none"
   d="m 98.73373,51.748273 c 4.5,-3.507874 6.37795,-4.570866 11.33858,-4.5 l 0,-3.933071 9.49607,6.944882 c 0,0 -6.55512,4.748032 -9.67323,7.157481 -0.1063,-1.311024 0,-2.515748 0,-3.968504 -3.43701,0 -4.78347,1.488189 -7.54725,3.047244 -1.31102,-1.523622 -2.30315,-3.22441 -3.61417,-4.748032 z"
   id="path3079" /><path
   inkscape:connector-curvature="0"
   style="fill:#008000;fill-opacity:1;fill-rule:nonzero;stroke:#ffffff;stroke-width:1.00000000999999990;stroke-miterlimit:4;stroke-dasharray:none;stroke-opacity:1"
   d="m 98.73373,51.748273 c 4.5,-3.507874 6.37795,-4.570866 11.33858,-4.5 l 0,-3.933071 9.49607,6.944882 c 0,0 -6.55512,4.748032 -9.67323,7.157481 -0.1063,-1.311024 0,-2.515748 0,-3.968504 -3.43701,0 -4.78347,1.488189 -7.54725,3.047244 -1.31102,-1.523622 -2.30315,-3.22441 -3.61417,-4.748032 z"
   id="path3081" /><path
   inkscape:connector-curvature="0"
   style="fill:#008000;fill-opacity:1;fill-rule:nonzero;stroke:#000000;stroke-width:0.03543307px;stroke-linecap:butt;stroke-linejoin:miter;stroke-miterlimit:4;stroke-opacity:1;stroke-dasharray:none"
   d="m 122.19042,52.456935 c -1.59449,1.133858 -3.47244,2.515748 -5.06693,3.685039 2.05512,2.480315 3.33071,4.429134 3.29528,7.582678 -1.48819,0 -4.21654,0.03543 -4.21654,0.03543 l 7.26378,9.779528 c 0,0 4.99607,-6.625985 7.29922,-9.814961 -1.31103,0 -2.94095,-0.07087 -4.25197,-0.07087 0.17716,-4.039371 -0.70866,-7.334646 -4.32284,-11.196851 z"
   id="path3083" /><path
   inkscape:connector-curvature="0"
   style="fill:#008000;fill-opacity:1;fill-rule:nonzero;stroke:#ffffff;stroke-width:1.00000000999999990;stroke-miterlimit:4;stroke-dasharray:none;stroke-opacity:1"
   d="m 122.19042,52.456935 c -1.59449,1.133858 -3.47244,2.515748 -5.06693,3.685039 2.05512,2.480315 3.33071,4.429134 3.29528,7.582678 -1.48819,0 -4.21654,0.03543 -4.21654,0.03543 l 7.26378,9.779528 c 0,0 4.99607,-6.625985 7.29922,-9.814961 -1.31103,0 -2.94095,-0.07087 -4.25197,-0.07087 0.17716,-4.039371 -0.70866,-7.334646 -4.32284,-11.196851 z"
   id="path3085" /><path
   transform="translate(43.541938,-4.7873322)"
   sodipodi:type="arc"
   style="fill:#000000;fill-opacity:1"
   id="path4033-9-4-2"
   sodipodi:cx="64.15448"
   sodipodi:cy="66.176758"
   sodipodi:rx="1.3039528"
   sodipodi:ry="1.3039528"
   d="m 65.458433,66.176758 a 1.3039528,1.3039528 0 1 1 -2.607906,0 1.3039528,1.3039528 0 1 1 2.607906,0 z" /><path
   transform="translate(48.542113,-4.8682094)"
   sodipodi:type="arc"
   style="fill:#000000;fill-opacity:1"
   id="path4033-9-3-3"
   sodipodi:cx="64.15448"
   sodipodi:cy="66.176758"
   sodipodi:rx="1.3039528"
   sodipodi:ry="1.3039528"
   d="m 65.458433,66.176758 a 1.3039528,1.3039528 0 1 1 -2.607906,0 1.3039528,1.3039528 0 1 1 2.607906,0 z" /><path
   transform="translate(43.512071,-0.21612645)"
   sodipodi:type="arc"
   style="fill:#000000;fill-opacity:1"
   id="path4033-9-1-3"
   sodipodi:cx="64.15448"
   sodipodi:cy="66.176758"
   sodipodi:rx="1.3039528"
   sodipodi:ry="1.3039528"
   d="m 65.458433,66.176758 a 1.3039528,1.3039528 0 1 1 -2.607906,0 1.3039528,1.3039528 0 1 1 2.607906,0 z" /><path
   transform="translate(48.571981,-0.18503496)"
   sodipodi:type="arc"
   style="fill:#000000;fill-opacity:1"
   id="path4033-9-1-3-3"
   sodipodi:cx="64.15448"
   sodipodi:cy="66.176758"
   sodipodi:rx="1.3039528"
   sodipodi:ry="1.3039528"
   d="m 65.458433,66.176758 a 1.3039528,1.3039528 0 1 1 -2.607906,0 1.3039528,1.3039528 0 1 1 2.607906,0 z" /><path
   sodipodi:type="arc"
   style="fill:#000000;fill-opacity:1"
   id="path4033-1"
   sodipodi:cx="64.15448"
   sodipodi:cy="66.176758"
   sodipodi:rx="1.3039528"
   sodipodi:ry="1.3039528"
   d="m 65.458433,66.176758 a 1.3039528,1.3039528 0 1 1 -2.607906,0 1.3039528,1.3039528 0 1 1 2.607906,0 z"
   transform="translate(46.055898,-2.4869452)"
   inkscape:transform-center-y="1.3039528" /><path
   d="m 89.956698,7.6914005 -9.052099,7.0922545 c 3.042631,2.295509 6.074435,4.601845 9.117066,6.897354 0,0 -0.04331,-2.782763 -0.06497,-4.16873 3.670648,0.552221 4.753435,0.552221 7.817722,3.399951 1.147754,-1.580869 2.284683,-3.172566 3.432443,-4.753435 -4.417779,-3.843894 -5.522222,-4.038796 -11.315132,-4.493566 0.02166,-1.321 0.06497,-3.9738285 0.06497,-3.9738285 z"
   id="path3128-9"
   inkscape:connector-curvature="0"
   style="fill:#0000ff;fill-opacity:1;stroke:#000000;stroke-width:0.01082787;stroke-opacity:0" /><path
   d="m 89.956698,7.6914005 -9.052099,7.0922545 c 3.042631,2.295509 6.074435,4.601845 9.117066,6.897354 0,0 -0.04331,-2.782763 -0.06497,-4.16873 3.670648,0.552221 4.753435,0.552221 7.817722,3.399951 1.147754,-1.580869 2.28468,-3.172566 3.43244,-4.753435 -4.417776,-3.843894 -5.522219,-4.038796 -11.315129,-4.493566 0.02166,-1.321 0.06497,-3.9738285 0.06497,-3.9738285 z"
   id="path3130-4"
   inkscape:connector-curvature="0"
   style="fill:#0000ff;fill-opacity:1;stroke:#ffffff;stroke-width:1.00000000999999990;stroke-miterlimit:4;stroke-dasharray:none;stroke-opacity:1" /><path
   d="m 76.746697,37.522182 7.135566,-9.279484 c 0,0 -2.69614,0 -4.049623,0 -0.281525,-3.681476 1.884049,-5.84705 2.988492,-7.904345 -1.52673,-1.147755 -3.064287,-2.295509 -4.591017,-3.443263 -3.010148,3.334984 -3.995484,5.284001 -4.461083,11.347608 -1.321,-0.07579 -3.963,-0.227385 -3.963,-0.227385 l 6.940665,9.506869 z"
   id="path3135-2"
   inkscape:connector-curvature="0"
   style="fill:#0000ff;fill-opacity:1;stroke:#000000;stroke-width:0.01082787;stroke-opacity:0" /><path
   d="m 76.746697,37.522182 7.135566,-9.279484 -4.049623,0 c -0.281525,-3.681476 1.884049,-5.84705 2.988492,-7.904345 -1.52673,-1.147755 -3.064287,-2.295509 -4.591017,-3.443263 -3.010148,3.334984 -3.995484,5.284001 -4.461083,11.347608 l -3.963,-0.227385 6.940665,9.506869 z"
   id="path3137-4"
   inkscape:connector-curvature="0"
   style="fill:#0000ff;fill-opacity:1;stroke:#ffffff;stroke-width:1.00000000999999990;stroke-miterlimit:4;stroke-dasharray:none;stroke-opacity:1" /><path
   d="m 78.923099,39.92597 c 4.428598,3.475746 6.30182,4.526049 11.228501,4.47191 0,1.299344 0,3.898033 0,3.898033 l 9.398591,-6.875697 c 0,0 -6.496722,-4.73178 -9.593493,-7.103083 -0.108279,1.310172 0,2.479582 0,3.930517 -3.410779,-0.01083 -4.731779,-1.461763 -7.482058,-3.020976 -1.288517,1.515902 -2.263025,3.183394 -3.551541,4.699296 z"
   id="path3142-1"
   inkscape:connector-curvature="0"
   style="fill:#0000ff;fill-opacity:1;stroke:#000000;stroke-width:0.01082787;stroke-opacity:0" /><path
   d="m 78.923099,39.92597 c 4.428598,3.475746 6.30182,4.526049 11.228501,4.47191 l 0,3.898033 9.398591,-6.875697 c 0,0 -6.496722,-4.73178 -9.593493,-7.103083 -0.108279,1.310172 0,2.479582 0,3.930517 -3.410779,-0.01083 -4.731779,-1.461763 -7.482058,-3.020976 -1.288517,1.515902 -2.263025,3.183394 -3.551541,4.699296 z"
   id="path3144-7"
   inkscape:connector-curvature="0"
   style="fill:#0000ff;fill-opacity:1;stroke:#ffffff;stroke-width:1.00000000999999990;stroke-miterlimit:4;stroke-dasharray:none;stroke-opacity:1" /><path
   d="m 102.13805,39.243814 c -1.57004,-1.147754 -3.421605,-2.501238 -4.991646,-3.648992 2.024811,-2.457927 3.270016,-4.417771 3.237536,-7.547026 -1.450938,0 -4.157905,-0.03248 -4.157905,-0.03248 l 7.189705,-9.669288 c 0,0 4.94834,6.561689 7.24385,9.734255 -1.29935,0 -2.93436,0.04331 -4.2337,0.04331 0.1949,4.01714 -0.70381,7.265501 -4.28784,11.120223 z"
   id="path3149-1"
   inkscape:connector-curvature="0"
   style="fill:#0000ff;fill-opacity:1;stroke:#000000;stroke-width:0.01082787;stroke-opacity:0" /><path
   d="m 102.13805,39.243814 c -1.57004,-1.147754 -3.421605,-2.501238 -4.991646,-3.648992 2.024811,-2.457927 3.270016,-4.417771 3.237536,-7.547026 -1.450938,0 -4.157905,-0.03248 -4.157905,-0.03248 l 7.189705,-9.669288 c 0,0 4.94834,6.561689 7.24385,9.734255 -1.29935,0 -2.93436,0.04331 -4.2337,0.04331 0.1949,4.01714 -0.70381,7.265501 -4.28784,11.120223 z"
   id="path3151-5"
   inkscape:connector-curvature="0"
   style="fill:#0000ff;fill-opacity:1;stroke:#ffffff;stroke-width:1.00000000999999990;stroke-miterlimit:4;stroke-dasharray:none;stroke-opacity:1" /><path
   d="m 26.994777,43.826701 -9.052099,7.092254 c 3.042631,2.295509 6.074435,4.601845 9.117066,6.897354 0,0 -0.04331,-2.782763 -0.06497,-4.16873 3.670648,0.552221 4.753435,0.552221 7.817722,3.399951 1.147754,-1.580869 2.284681,-3.172566 3.432435,-4.753435 -4.417771,-3.843894 -5.522214,-4.038796 -11.315124,-4.493566 0.02166,-1.321 0.06497,-3.973828 0.06497,-3.973828 z"
   id="path3128-1"
   inkscape:connector-curvature="0"
   style="fill:#0000ff;fill-opacity:1;stroke:#000000;stroke-width:0.01082787;stroke-opacity:0" /><path
   d="m 26.994777,43.826701 -9.052099,7.092254 c 3.042631,2.295509 6.074435,4.601845 9.117066,6.897354 0,0 -0.04331,-2.782763 -0.06497,-4.16873 3.670648,0.552221 4.753435,0.552221 7.817722,3.399951 1.147754,-1.580869 2.284681,-3.172566 3.432435,-4.753435 -4.417771,-3.843894 -5.522214,-4.038796 -11.315124,-4.493566 0.02166,-1.321 0.06497,-3.973828 0.06497,-3.973828 z"
   id="path3130-42"
   inkscape:connector-curvature="0"
   style="fill:#0000ff;fill-opacity:1;stroke:#ffffff;stroke-width:1.00000000999999990;stroke-miterlimit:4;stroke-dasharray:none;stroke-opacity:1" /><path
   d="m 13.784776,73.657482 7.135566,-9.279484 c 0,0 -2.69614,0 -4.049623,0 -0.281525,-3.681476 1.884049,-5.84705 2.988492,-7.904345 -1.52673,-1.147755 -3.064287,-2.295509 -4.591017,-3.443263 -3.010148,3.334984 -3.995484,5.284001 -4.461083,11.347608 -1.3209997,-0.07579 -3.963,-0.227385 -3.963,-0.227385 l 6.940665,9.506869 z"
   id="path3135-21"
   inkscape:connector-curvature="0"
   style="fill:#0000ff;fill-opacity:1;stroke:#000000;stroke-width:0.01082787;stroke-opacity:0" /><path
   d="m 13.784776,73.657482 7.135566,-9.279484 -4.049623,0 c -0.281525,-3.681476 1.884049,-5.84705 2.988492,-7.904345 -1.52673,-1.147755 -3.064287,-2.295509 -4.591017,-3.443263 -3.010148,3.334984 -3.995484,5.284001 -4.461083,11.347608 l -3.963,-0.227385 6.940665,9.506869 z"
   id="path3137-6"
   inkscape:connector-curvature="0"
   style="fill:#0000ff;fill-opacity:1;stroke:#ffffff;stroke-width:1.00000000999999990;stroke-miterlimit:4;stroke-dasharray:none;stroke-opacity:1" /><path
   d="m 15.961178,76.06127 c 4.428598,3.475746 6.30182,4.526049 11.228501,4.47191 0,1.299344 0,3.898033 0,3.898033 l 9.398591,-6.875697 c 0,0 -6.496722,-4.73178 -9.593493,-7.103083 -0.108279,1.310172 0,2.479582 0,3.930517 -3.410779,-0.01083 -4.731779,-1.461763 -7.482058,-3.020976 -1.288517,1.515902 -2.263025,3.183394 -3.551541,4.699296 z"
   id="path3142-6"
   inkscape:connector-curvature="0"
   style="fill:#0000ff;fill-opacity:1;stroke:#000000;stroke-width:0.01082787;stroke-opacity:0" /><path
   d="m 15.961178,76.06127 c 4.428598,3.475746 6.30182,4.526049 11.228501,4.47191 l 0,3.898033 9.398591,-6.875697 c 0,0 -6.496722,-4.73178 -9.593493,-7.103083 -0.108279,1.310172 0,2.479582 0,3.930517 -3.410779,-0.01083 -4.731779,-1.461763 -7.482058,-3.020976 -1.288517,1.515902 -2.263025,3.183394 -3.551541,4.699296 z"
   id="path3144-1"
   inkscape:connector-curvature="0"
   style="fill:#0000ff;fill-opacity:1;stroke:#ffffff;stroke-width:1.00000000999999990;stroke-miterlimit:4;stroke-dasharray:none;stroke-opacity:1" /><path
   d="m 39.176131,75.379114 c -1.570041,-1.147754 -3.421607,-2.501238 -4.991648,-3.648992 2.024811,-2.457927 3.270016,-4.417771 3.237533,-7.547026 -1.450935,0 -4.157902,-0.03248 -4.157902,-0.03248 l 7.189705,-9.669288 c 0,0 4.948337,6.561689 7.243846,9.734255 -1.299345,0 -2.934353,0.04331 -4.233698,0.04331 0.194902,4.01714 -0.703811,7.265501 -4.287836,11.120223 z"
   id="path3149-9"
   inkscape:connector-curvature="0"
   style="fill:#0000ff;fill-opacity:1;stroke:#000000;stroke-width:0.01082787;stroke-opacity:0" /><path
   d="m 39.176131,75.379114 c -1.570041,-1.147754 -3.421607,-2.501238 -4.991648,-3.648992 2.024811,-2.457927 3.270016,-4.417771 3.237533,-7.547026 -1.450935,0 -4.157902,-0.03248 -4.157902,-0.03248 l 7.189705,-9.669288 c 0,0 4.948337,6.561689 7.243846,9.734255 -1.299345,0 -2.934353,0.04331 -4.233698,0.04331 0.194902,4.01714 -0.703811,7.265501 -4.287836,11.120223 z"
   id="path3151-2"
   inkscape:connector-curvature="0"
   style="fill:#0000ff;fill-opacity:1;stroke:#ffffff;stroke-width:1.00000000999999990;stroke-miterlimit:4;stroke-dasharray:none;stroke-opacity:1" /><path
   transform="translate(23.719137,-37.883948)"
   sodipodi:type="arc"
   style="fill:#000000;fill-opacity:1"
   id="path4033-9"
   sodipodi:cx="64.15448"
   sodipodi:cy="66.176758"
   sodipodi:rx="1.3039528"
   sodipodi:ry="1.3039528"
   d="m 65.458433,66.176758 a 1.3039528,1.3039528 0 1 1 -2.607906,0 1.3039528,1.3039528 0 1 1 2.607906,0 z" /><path
   transform="translate(28.032492,-37.992828)"
   sodipodi:type="arc"
   style="fill:#000000;fill-opacity:1"
   id="path4033-9-5"
   sodipodi:cx="64.15448"
   sodipodi:cy="66.176758"
   sodipodi:rx="1.3039528"
   sodipodi:ry="1.3039528"
   d="m 65.458433,66.176758 a 1.3039528,1.3039528 0 1 1 -2.607906,0 1.3039528,1.3039528 0 1 1 2.607906,0 z" /><path
   style="fill:#008000;fill-opacity:1;stroke:#000000;stroke-width:0.01092709;stroke-opacity:0"
   inkscape:connector-curvature="0"
   d="m 47.205719,48.720659 -9.135047,-7.157244 c 3.070513,-2.316543 6.130098,-4.644013 9.20061,-6.960556 0,0 -0.04371,2.808262 -0.06556,4.20693 3.704284,-0.557282 4.796993,-0.557282 7.889359,-3.431107 1.158272,1.595355 2.305616,3.201638 3.463888,4.796993 -4.458253,3.879117 -5.572816,4.075804 -11.418809,4.534742 0.02185,1.333105 0.06556,4.010242 0.06556,4.010242 z"
   id="path3084" /><path
   style="fill:#008000;fill-opacity:1;stroke:#ffffff;stroke-width:1.00000000999999990;stroke-miterlimit:4;stroke-dasharray:none;stroke-opacity:1"
   inkscape:connector-curvature="0"
   d="m 47.205719,48.720659 -9.135047,-7.157244 c 3.070513,-2.316543 6.130098,-4.644013 9.20061,-6.960556 0,0 -0.04371,2.808262 -0.06556,4.20693 3.704284,-0.557282 4.796993,-0.557282 7.889359,-3.431107 1.158272,1.595355 2.305616,3.201638 3.463888,4.796993 -4.458253,3.879117 -5.572816,4.075804 -11.418809,4.534742 0.02185,1.333105 0.06556,4.010242 0.06556,4.010242 z"
   id="path3086" /><path
   style="fill:#008000;fill-opacity:1;stroke:#000000;stroke-width:0.01092709;stroke-opacity:0"
   inkscape:connector-curvature="0"
   d="m 33.87467,18.616526 7.200952,9.364516 c 0,0 -2.720845,0 -4.086732,0 -0.284104,3.715211 1.901314,5.900629 3.015877,7.976776 -1.54072,1.158272 -3.092366,2.316543 -4.633086,3.474815 -3.037731,-3.365544 -4.032096,-5.33242 -4.501961,-11.451591 -1.333105,0.07649 -3.999315,0.229469 -3.999315,0.229469 l 7.004265,-9.593985 z"
   id="path3091-9" /><path
   style="fill:#008000;fill-opacity:1;stroke:#ffffff;stroke-width:1.00000000999999990;stroke-miterlimit:4;stroke-dasharray:none;stroke-opacity:1"
   inkscape:connector-curvature="0"
   d="m 33.87467,18.616526 7.200952,9.364516 -4.086732,0 c -0.284104,3.715211 1.901314,5.900629 3.015877,7.976776 -1.54072,1.158272 -3.092366,2.316543 -4.633086,3.474815 -3.037731,-3.365544 -4.032096,-5.33242 -4.501961,-11.451591 l -3.999315,0.229469 7.004265,-9.593985 z"
   id="path3093" /><path
   style="fill:#008000;fill-opacity:1;stroke:#000000;stroke-width:0.01092709;stroke-opacity:0"
   inkscape:connector-curvature="0"
   d="m 36.071015,16.190712 c 4.46918,-3.507596 6.359566,-4.567523 11.331392,-4.512888 0,-1.311251 0,-3.9337523 0,-3.9337523 l 9.484714,6.9387023 c 0,0 -6.556254,4.775138 -9.681402,7.168171 -0.10927,-1.322178 0,-2.502304 0,-3.966534 -3.442033,0.01093 -4.775138,1.475157 -7.550619,3.048658 -1.300323,-1.529792 -2.283762,-3.212564 -3.584085,-4.742357 z"
   id="path3098" /><path
   style="fill:#008000;fill-opacity:1;stroke:#ffffff;stroke-width:1.00000000999999990;stroke-miterlimit:4;stroke-dasharray:none;stroke-opacity:1"
   inkscape:connector-curvature="0"
   d="m 36.071015,16.190712 c 4.46918,-3.507596 6.359566,-4.567523 11.331392,-4.512888 l 0,-3.9337523 9.484714,6.9387023 c 0,0 -6.556254,4.775138 -9.681402,7.168171 -0.10927,-1.322178 0,-2.502304 0,-3.966534 -3.442033,0.01093 -4.775138,1.475157 -7.550619,3.048658 -1.300323,-1.529792 -2.283762,-3.212564 -3.584085,-4.742357 z"
   id="path3100-8" /><path
   style="fill:#008000;fill-opacity:1;stroke:#000000;stroke-width:0.01092709;stroke-opacity:0"
   inkscape:connector-curvature="0"
   d="m 59.498696,16.879119 c -1.584428,1.158271 -3.452961,2.524158 -5.037389,3.682429 2.043366,2.48045 3.299981,4.458253 3.2672,7.616182 -1.46423,0 -4.196002,0.03278 -4.196002,0.03278 l 7.255587,9.757892 c 0,0 4.99368,-6.621817 7.310224,-9.823454 -1.311251,0 -2.961242,-0.04371 -4.272493,-0.04371 0.196688,-4.05395 -0.71026,-7.332077 -4.327127,-11.222121 z"
   id="path3105" /><path
   style="fill:#008000;fill-opacity:1;stroke:#ffffff;stroke-width:1.00000000999999990;stroke-miterlimit:4;stroke-dasharray:none;stroke-opacity:1"
   inkscape:connector-curvature="0"
   d="m 59.498696,16.879119 c -1.584428,1.158271 -3.452961,2.524158 -5.037389,3.682429 2.043366,2.48045 3.299981,4.458253 3.2672,7.616182 -1.46423,0 -4.196002,0.03278 -4.196002,0.03278 l 7.255587,9.757892 c 0,0 4.99368,-6.621817 7.310224,-9.823454 -1.311251,0 -2.961242,-0.04371 -4.272493,-0.04371 0.196688,-4.05395 -0.71026,-7.332077 -4.327127,-11.222121 z"
   id="path3107" /><path
   transform="translate(-18.959624,-40.217973)"
   sodipodi:type="arc"
   style="fill:#000000;fill-opacity:1"
   id="path4033-9-4-2-9"
   sodipodi:cx="64.15448"
   sodipodi:cy="66.176758"
   sodipodi:rx="1.3039528"
   sodipodi:ry="1.3039528"
   d="m 65.458433,66.176758 a 1.3039528,1.3039528 0 1 1 -2.607906,0 1.3039528,1.3039528 0 1 1 2.607906,0 z" /><path
   transform="translate(-14.806823,-40.221613)"
   sodipodi:type="arc"
   style="fill:#000000;fill-opacity:1"
   id="path4033-9-3-3-5"
   sodipodi:cx="64.15448"
   sodipodi:cy="66.176758"
   sodipodi:rx="1.3039528"
   sodipodi:ry="1.3039528"
   d="m 65.458433,66.176758 a 1.3039528,1.3039528 0 1 1 -2.607906,0 1.3039528,1.3039528 0 1 1 2.607906,0 z" /><path
   transform="translate(-18.965694,-36.522293)"
   sodipodi:type="arc"
   style="fill:#000000;fill-opacity:1"
   id="path4033-9-1-3-4"
   sodipodi:cx="64.15448"
   sodipodi:cy="66.176758"
   sodipodi:rx="1.3039528"
   sodipodi:ry="1.3039528"
   d="m 65.458433,66.176758 a 1.3039528,1.3039528 0 1 1 -2.607906,0 1.3039528,1.3039528 0 1 1 2.607906,0 z" /><path
   transform="translate(-14.773955,-36.513823)"
   sodipodi:type="arc"
   style="fill:#000000;fill-opacity:1"
   id="path4033-9-1-3-3-3"
   sodipodi:cx="64.15448"
   sodipodi:cy="66.176758"
   sodipodi:rx="1.3039528"
   sodipodi:ry="1.3039528"
   d="m 65.458433,66.176758 a 1.3039528,1.3039528 0 1 1 -2.607906,0 1.3039528,1.3039528 0 1 1 2.607906,0 z" /><path
   style="fill:#008000;fill-opacity:1;stroke:#000000;stroke-width:0.01092709;stroke-opacity:0"
   inkscape:connector-curvature="0"
   d="m 47.459154,120.05046 -9.135047,-7.15725 c 3.070513,-2.31654 6.130098,-4.64401 9.20061,-6.96056 0,0 -0.04371,2.80827 -0.06556,4.20693 3.704284,-0.55728 4.796993,-0.55728 7.889359,-3.4311 1.158272,1.59535 2.305616,3.20164 3.463888,4.79699 -4.458253,3.87912 -5.572816,4.07581 -11.418809,4.53474 0.02185,1.33311 0.06556,4.01025 0.06556,4.01025 z"
   id="path3084-4" /><path
   style="fill:#008000;fill-opacity:1;stroke:#ffffff;stroke-width:1.00000000999999990;stroke-miterlimit:4;stroke-dasharray:none;stroke-opacity:1"
   inkscape:connector-curvature="0"
   d="m 47.459154,120.05046 -9.135047,-7.15725 c 3.070513,-2.31654 6.130098,-4.64401 9.20061,-6.96056 0,0 -0.04371,2.80827 -0.06556,4.20693 3.704284,-0.55728 4.796993,-0.55728 7.889359,-3.4311 1.158272,1.59535 2.305616,3.20164 3.463888,4.79699 -4.458253,3.87912 -5.572816,4.07581 -11.418809,4.53474 0.02185,1.33311 0.06556,4.01025 0.06556,4.01025 z"
   id="path3086-1" /><path
   style="fill:#008000;fill-opacity:1;stroke:#000000;stroke-width:0.01092709;stroke-opacity:0"
   inkscape:connector-curvature="0"
   d="m 34.128105,89.946322 7.200952,9.364516 c 0,0 -2.720845,0 -4.086732,0 -0.284104,3.715212 1.901314,5.900632 3.015877,7.976772 -1.54072,1.15828 -3.092366,2.31655 -4.633086,3.47482 -3.037731,-3.36555 -4.032096,-5.33242 -4.501961,-11.451592 -1.333105,0.07649 -3.999315,0.229469 -3.999315,0.229469 l 7.004265,-9.593985 z"
   id="path3091-9-8" /><path
   style="fill:#008000;fill-opacity:1;stroke:#ffffff;stroke-width:1.00000000999999990;stroke-miterlimit:4;stroke-dasharray:none;stroke-opacity:1"
   inkscape:connector-curvature="0"
   d="m 34.128105,89.946322 7.200952,9.364516 -4.086732,0 c -0.284104,3.715212 1.901314,5.900632 3.015877,7.976772 -1.54072,1.15828 -3.092366,2.31655 -4.633086,3.47482 -3.037731,-3.36555 -4.032096,-5.33242 -4.501961,-11.451592 l -3.999315,0.229469 7.004265,-9.593985 z"
   id="path3093-7" /><path
   style="fill:#008000;fill-opacity:1;stroke:#000000;stroke-width:0.01092709;stroke-opacity:0"
   inkscape:connector-curvature="0"
   d="m 36.32445,87.520508 c 4.46918,-3.507596 6.359566,-4.567523 11.331392,-4.512888 0,-1.311251 0,-3.933752 0,-3.933752 l 9.484714,6.938702 c 0,0 -6.556254,4.775138 -9.681402,7.168171 -0.10927,-1.322178 0,-2.502304 0,-3.966534 -3.442033,0.01093 -4.775138,1.475157 -7.550619,3.048658 -1.300323,-1.529792 -2.283762,-3.212564 -3.584085,-4.742357 z"
   id="path3098-7" /><path
   style="fill:#008000;fill-opacity:1;stroke:#ffffff;stroke-width:1.00000000999999990;stroke-miterlimit:4;stroke-dasharray:none;stroke-opacity:1"
   inkscape:connector-curvature="0"
   d="m 36.32445,87.520508 c 4.46918,-3.507596 6.359566,-4.567523 11.331392,-4.512888 l 0,-3.933752 9.484714,6.938702 c 0,0 -6.556254,4.775138 -9.681402,7.168171 -0.10927,-1.322178 0,-2.502304 0,-3.966534 -3.442033,0.01093 -4.775138,1.475157 -7.550619,3.048658 -1.300323,-1.529792 -2.283762,-3.212564 -3.584085,-4.742357 z"
   id="path3100-8-7" /><path
   style="fill:#008000;fill-opacity:1;stroke:#000000;stroke-width:0.01092709;stroke-opacity:0"
   inkscape:connector-curvature="0"
   d="m 59.752131,88.208915 c -1.584428,1.158272 -3.452961,2.524158 -5.037389,3.682429 2.043366,2.48045 3.299981,4.458253 3.2672,7.616182 -1.46423,0 -4.196002,0.03278 -4.196002,0.03278 l 7.255587,9.757894 c 0,0 4.99368,-6.62182 7.310224,-9.823456 -1.311251,0 -2.961242,-0.04371 -4.272493,-0.04371 0.196688,-4.05395 -0.71026,-7.332077 -4.327127,-11.222121 z"
   id="path3105-1" /><path
   style="fill:#008000;fill-opacity:1;stroke:#ffffff;stroke-width:1.00000000999999990;stroke-miterlimit:4;stroke-dasharray:none;stroke-opacity:1"
   inkscape:connector-curvature="0"
   d="m 59.752131,88.208915 c -1.584428,1.158272 -3.452961,2.524158 -5.037389,3.682429 2.043366,2.48045 3.299981,4.458253 3.2672,7.616182 -1.46423,0 -4.196002,0.03278 -4.196002,0.03278 l 7.255587,9.757893 c 0,0 4.99368,-6.62182 7.310224,-9.823455 -1.311251,0 -2.961242,-0.04371 -4.272493,-0.04371 0.196688,-4.05395 -0.71026,-7.332077 -4.327127,-11.222121 z"
   id="path3107-9" /><path
   transform="translate(-18.732026,31.876126)"
   sodipodi:type="arc"
   style="fill:#000000;fill-opacity:1"
   id="path4033-9-4"
   sodipodi:cx="64.15448"
   sodipodi:cy="66.176758"
   sodipodi:rx="1.3039528"
   sodipodi:ry="1.3039528"
   d="m 65.458433,66.176758 a 1.3039528,1.3039528 0 1 1 -2.607906,0 1.3039528,1.3039528 0 1 1 2.607906,0 z" /><path
   transform="translate(-14.579225,31.87248)"
   sodipodi:type="arc"
   style="fill:#000000;fill-opacity:1"
   id="path4033-9-3"
   sodipodi:cx="64.15448"
   sodipodi:cy="66.176758"
   sodipodi:rx="1.3039528"
   sodipodi:ry="1.3039528"
   d="m 65.458433,66.176758 a 1.3039528,1.3039528 0 1 1 -2.607906,0 1.3039528,1.3039528 0 1 1 2.607906,0 z" /><path
   transform="translate(-16.607701,35.376209)"
   sodipodi:type="arc"
   style="fill:#000000;fill-opacity:1"
   id="path4033-9-1"
   sodipodi:cx="64.15448"
   sodipodi:cy="66.176758"
   sodipodi:rx="1.3039528"
   sodipodi:ry="1.3039528"
   d="m 65.458433,66.176758 a 1.3039528,1.3039528 0 1 1 -2.607906,0 1.3039528,1.3039528 0 1 1 2.607906,0 z" /><path
   transform="translate(-39.202775,-2.0805142)"
   sodipodi:type="arc"
   style="fill:#000000;fill-opacity:1"
   id="path4033-9-4-2-9-8"
   sodipodi:cx="64.15448"
   sodipodi:cy="66.176758"
   sodipodi:rx="1.3039528"
   sodipodi:ry="1.3039528"
   d="m 65.458433,66.176758 a 1.3039528,1.3039528 0 1 1 -2.607906,0 1.3039528,1.3039528 0 1 1 2.607906,0 z" /><path
   transform="translate(-35.049974,-2.0841542)"
   sodipodi:type="arc"
   style="fill:#000000;fill-opacity:1"
   id="path4033-9-3-3-5-6"
   sodipodi:cx="64.15448"
   sodipodi:cy="66.176758"
   sodipodi:rx="1.3039528"
   sodipodi:ry="1.3039528"
   d="m 65.458433,66.176758 a 1.3039528,1.3039528 0 1 1 -2.607906,0 1.3039528,1.3039528 0 1 1 2.607906,0 z" /><path
   transform="translate(-39.208845,1.4956945)"
   sodipodi:type="arc"
   style="fill:#000000;fill-opacity:1"
   id="path4033-9-1-3-4-5"
   sodipodi:cx="64.15448"
   sodipodi:cy="66.176758"
   sodipodi:rx="1.3039528"
   sodipodi:ry="1.3039528"
   d="m 65.458433,66.176758 a 1.3039528,1.3039528 0 1 1 -2.607906,0 1.3039528,1.3039528 0 1 1 2.607906,0 z" /><path
   transform="translate(-35.017106,1.5041645)"
   sodipodi:type="arc"
   style="fill:#000000;fill-opacity:1"
   id="path4033-9-1-3-3-3-0"
   sodipodi:cx="64.15448"
   sodipodi:cy="66.176758"
   sodipodi:rx="1.3039528"
   sodipodi:ry="1.3039528"
   d="m 65.458433,66.176758 a 1.3039528,1.3039528 0 1 1 -2.607906,0 1.3039528,1.3039528 0 1 1 2.607906,0 z" /><path
   transform="translate(-39.280924,-5.6795778)"
   sodipodi:type="arc"
   style="fill:#000000;fill-opacity:1"
   id="path4033-9-4-2-9-8-2"
   sodipodi:cx="64.15448"
   sodipodi:cy="66.176758"
   sodipodi:rx="1.3039528"
   sodipodi:ry="1.3039528"
   d="m 65.458433,66.176758 a 1.3039528,1.3039528 0 1 1 -2.607906,0 1.3039528,1.3039528 0 1 1 2.607906,0 z" /><path
   transform="translate(-35.128123,-5.6832178)"
   sodipodi:type="arc"
   style="fill:#000000;fill-opacity:1"
   id="path4033-9-3-3-5-6-8"
   sodipodi:cx="64.15448"
   sodipodi:cy="66.176758"
   sodipodi:rx="1.3039528"
   sodipodi:ry="1.3039528"
   d="m 65.458433,66.176758 a 1.3039528,1.3039528 0 1 1 -2.607906,0 1.3039528,1.3039528 0 1 1 2.607906,0 z" /><path
   style="fill:#000000;fill-opacity:1;stroke:none"
   d="m 69.793145,52.964499 -6.77695,9.727457 3.96147,-1.284856 -0.124806,10.086279 5.326384,-0.01023 0.07638,-10.10865 3.711866,1.355649 z"
   id="path3263"
   inkscape:connector-curvature="0"
   sodipodi:nodetypes="cccccccc" /></svg>