<?xml version="1.0" encoding="UTF-8" standalone="no"?>
<!-- Public domain (CC-BY-SA v2.0 if you or your laws insist), Originator: Kjell Kernen -->

<svg
   xmlns:osb="http://www.openswatchbook.org/uri/2009/osb"
   xmlns:dc="http://purl.org/dc/elements/1.1/"
   xmlns:cc="http://creativecommons.org/ns#"
   xmlns:rdf="http://www.w3.org/1999/02/22-rdf-syntax-ns#"
   xmlns:svg="http://www.w3.org/2000/svg"
   xmlns="http://www.w3.org/2000/svg"
   xmlns:sodipodi="http://sodipodi.sourceforge.net/DTD/sodipodi-0.dtd"
   xmlns:inkscape="http://www.inkscape.org/namespaces/inkscape"
   version="1.1"
   id="Vtail-mix"
   x="0px"
   y="0px"
   width="90.56px"
   height="85.29px"
   viewBox="0.69 6.47 90.56 85.29"
   xml:space="preserve"
   inkscape:version="0.48.5 r10040"
   sodipodi:docname="vtail_quad.svg"><metadata
   id="metadata32"><rdf:RDF><cc:Work
       rdf:about=""><dc:format>image/svg+xml</dc:format><dc:type
         rdf:resource="http://purl.org/dc/dcmitype/StillImage" /></cc:Work></rdf:RDF></metadata><defs
   id="defs30"><linearGradient
     id="linearGradient3972"
     osb:paint="solid"><stop
       style="stop-color:#000000;stop-opacity:1;"
       offset="0"
       id="stop3974" /></linearGradient></defs><sodipodi:namedview
   pagecolor="#ffffff"
   bordercolor="#666666"
   borderopacity="1"
   objecttolerance="10"
   gridtolerance="10"
   guidetolerance="10"
   inkscape:pageopacity="0"
   inkscape:pageshadow="2"
   inkscape:window-width="678"
   inkscape:window-height="480"
   id="namedview28"
   showgrid="false"
   inkscape:zoom="1.9565857"
   inkscape:cx="18.411193"
   inkscape:cy="45.689069"
   inkscape:window-x="248"
   inkscape:window-y="1519"
   inkscape:window-maximized="0"
   inkscape:current-layer="Vtail-mix" />





<path
   style="fill:#008000;fill-opacity:1;stroke:#ffffff;stroke-width:1.00000003000000000;stroke-opacity:1;stroke-miterlimit:4;stroke-dasharray:none"
   inkscape:connector-curvature="0"
   d="m 21.011062,47.557996 -9.135047,-7.157244 c 3.070513,-2.316543 6.130098,-4.644013 9.20061,-6.960556 0,0 -0.04371,2.808262 -0.06556,4.20693 3.704284,-0.557282 4.796993,-0.557282 7.889359,-3.431107 1.158272,1.595355 2.305616,3.201638 3.463888,4.796993 -4.458253,3.879117 -5.572816,4.075804 -11.418809,4.534742 0.02185,1.333105 0.06556,4.010242 0.06556,4.010242 z"
   id="path3084" /><path
   style="fill:#008000;fill-opacity:1;stroke:#ffffff;stroke-width:1.00000003000000000;stroke-opacity:1;stroke-miterlimit:4;stroke-dasharray:none"
   inkscape:connector-curvature="0"
   d="m 7.6800127,17.453863 7.2009523,9.364516 c 0,0 -2.720845,0 -4.086732,0 -0.284104,3.715211 1.901314,5.900629 3.015877,7.976776 -1.54072,1.158272 -3.092366,2.316543 -4.633086,3.474815 C 6.139293,34.904426 5.1449278,32.93755 4.6750629,26.818379 3.341958,26.894869 0.675748,27.047848 0.675748,27.047848 l 7.0042647,-9.593985 z"
   id="path3091-9" /><path
   style="fill:#008000;fill-opacity:1;stroke:#ffffff;stroke-width:1.00000003000000000;stroke-opacity:1;stroke-miterlimit:4;stroke-dasharray:none"
   inkscape:connector-curvature="0"
   d="m 9.8763578,15.028049 c 4.4691802,-3.507596 6.3595662,-4.567523 11.3313922,-4.512888 0,-1.3112507 0,-3.9337523 0,-3.9337523 l 9.484714,6.9387023 c 0,0 -6.556254,4.775138 -9.681402,7.168171 -0.10927,-1.322178 0,-2.502304 0,-3.966534 -3.442033,0.01093 -4.775138,1.475157 -7.550619,3.048658 -1.300323,-1.529792 -2.283762,-3.212564 -3.5840852,-4.742357 z"
   id="path3098" /><path
   style="fill:#008000;fill-opacity:1;stroke:#ffffff;stroke-width:1.00000003000000000;stroke-opacity:1;stroke-miterlimit:4;stroke-dasharray:none"
   inkscape:connector-curvature="0"
   d="m 33.304039,15.716456 c -1.584428,1.158272 -3.452961,2.524158 -5.037389,3.682429 2.043366,2.48045 3.299981,4.458253 3.2672,7.616182 -1.46423,0 -4.196002,0.03278 -4.196002,0.03278 l 7.255587,9.757892 c 0,0 4.99368,-6.621817 7.310224,-9.823454 -1.311251,0 -2.961242,-0.04371 -4.272493,-0.04371 0.196688,-4.05395 -0.71026,-7.332077 -4.327127,-11.222121 z"
   id="path3105" /><path
   transform="translate(-45.515679,-41.019233)"
   sodipodi:type="arc"
   style="fill:#000000;fill-opacity:1"
   id="path4033-9-4-2"
   sodipodi:cx="64.15448"
   sodipodi:cy="66.176758"
   sodipodi:rx="1.3039528"
   sodipodi:ry="1.3039528"
   d="m 65.458433,66.176758 a 1.3039528,1.3039528 0 1 1 -2.607906,0 1.3039528,1.3039528 0 1 1 2.607906,0 z" /><path
   transform="translate(-41.362878,-41.022879)"
   sodipodi:type="arc"
   style="fill:#000000;fill-opacity:1"
   id="path4033-9-3-3"
   sodipodi:cx="64.15448"
   sodipodi:cy="66.176758"
   sodipodi:rx="1.3039528"
   sodipodi:ry="1.3039528"
   d="m 65.458433,66.176758 a 1.3039528,1.3039528 0 1 1 -2.607906,0 1.3039528,1.3039528 0 1 1 2.607906,0 z" /><path
   transform="translate(-45.521749,-37.323557)"
   sodipodi:type="arc"
   style="fill:#000000;fill-opacity:1"
   id="path4033-9-1-3"
   sodipodi:cx="64.15448"
   sodipodi:cy="66.176758"
   sodipodi:rx="1.3039528"
   sodipodi:ry="1.3039528"
   d="m 65.458433,66.176758 a 1.3039528,1.3039528 0 1 1 -2.607906,0 1.3039528,1.3039528 0 1 1 2.607906,0 z" /><path
   transform="translate(-41.33001,-37.315086)"
   sodipodi:type="arc"
   style="fill:#000000;fill-opacity:1"
   id="path4033-9-1-3-3"
   sodipodi:cx="64.15448"
   sodipodi:cy="66.176758"
   sodipodi:rx="1.3039528"
   sodipodi:ry="1.3039528"
   d="m 65.458433,66.176758 a 1.3039528,1.3039528 0 1 1 -2.607906,0 1.3039528,1.3039528 0 1 1 2.607906,0 z" /><path
   inkscape:connector-curvature="0"
   style="fill:#0000ff;fill-opacity:1;fill-rule:nonzero;stroke:#ffffff;stroke-width:1.00000003000000000;stroke-linecap:butt;stroke-linejoin:miter;stroke-miterlimit:4;stroke-opacity:1;stroke-dasharray:none"
   d="M 70.319394,6.7665531 61.28396,13.853167 c 3.047245,2.30315 6.059056,4.6063 9.1063,6.909449 0,0 -0.03543,-2.763779 -0.07087,-4.181102 3.685039,0.566929 4.783464,0.566929 7.830708,3.401575 1.133858,-1.559056 2.30315,-3.153544 3.437008,-4.748032 -4.429134,-3.826772 -5.527559,-4.03937 -11.30315,-4.5 0,-1.3110235 0.03543,-3.9685039 0.03543,-3.9685039 z"
   id="path3064" /><path
   inkscape:connector-curvature="0"
   style="fill:#0000ff;fill-opacity:1;fill-rule:nonzero;stroke:#ffffff;stroke-width:1.00000003000000000;stroke-linecap:butt;stroke-linejoin:miter;stroke-miterlimit:4;stroke-opacity:1;stroke-dasharray:none"
   d="m 57.138291,36.601199 7.122047,-9.283465 -4.03937,0 c -0.283464,-3.685039 1.877953,-5.846456 2.976378,-7.901575 -1.523622,-1.133858 -3.047244,-2.303149 -4.570866,-3.437007 -3.011811,3.330708 -4.003937,5.279527 -4.464567,11.338582 l -3.968504,-0.212598 6.944882,9.496063 z"
   id="path3068" /><path
   inkscape:connector-curvature="0"
   style="fill:#0000ff;fill-opacity:1;fill-rule:nonzero;stroke:#ffffff;stroke-width:1.00000003000000000;stroke-linecap:butt;stroke-linejoin:miter;stroke-miterlimit:4;stroke-opacity:1;stroke-dasharray:none"
   d="m 59.299708,39.010648 c 4.429134,3.472441 6.307087,4.535433 11.232284,4.464567 l 0,3.897637 9.389764,-6.874015 c 0,0 -6.484252,-4.712599 -9.602362,-7.086614 -0.1063,1.311023 0,2.480314 0,3.93307 -3.401575,-0.03543 -4.712599,-1.488189 -7.476378,-3.047244 -1.275591,1.523622 -2.267717,3.188977 -3.543308,4.712599 z"
   id="path3072" /><path
   inkscape:connector-curvature="0"
   style="fill:#0000ff;fill-opacity:1;fill-rule:nonzero;stroke:#ffffff;stroke-width:1.00000003000000000;stroke-linecap:butt;stroke-linejoin:miter;stroke-miterlimit:4;stroke-opacity:1;stroke-dasharray:none"
   d="m 82.50837,38.337419 c -1.559055,-1.169291 -3.401575,-2.515748 -4.996063,-3.649606 2.055118,-2.480315 3.295276,-4.429134 3.259842,-7.547244 -1.452755,0 -4.181102,-0.03543 -4.181102,-0.03543 l 7.192914,-9.673228 c 0,0 4.960629,6.555118 7.263779,9.744094 -1.311024,0 -2.940945,0.03543 -4.251968,0.03543 0.212598,4.003937 -0.708662,7.26378 -4.287402,11.125984 z"
   id="path3076" /><path
   inkscape:connector-curvature="0"
   style="fill:#000000;fill-opacity:1;fill-rule:nonzero;stroke:none"
   d="m 69.610732,27.246868 c 0,0.744095 -0.566929,1.311024 -1.311024,1.311024 -0.708661,0 -1.311023,-0.566929 -1.311023,-1.311024 0,-0.708661 0.602362,-1.27559 1.311023,-1.27559 0.744095,0 1.311024,0.566929 1.311024,1.27559 z"
   id="path3080" /><path
   inkscape:connector-curvature="0"
   style="fill:#000000;fill-opacity:1;fill-rule:nonzero;stroke:none"
   d="m 73.933567,27.140569 c 0,0.744094 -0.602362,1.311024 -1.311024,1.311024 -0.708661,0 -1.311023,-0.56693 -1.311023,-1.311024 0,-0.708661 0.602362,-1.311024 1.311023,-1.311024 0.708662,0 1.311024,0.602363 1.311024,1.311024 z"
   id="path3082" /><path
   style="fill:#008000;fill-opacity:1;stroke:#ffffff;stroke-width:1.00000003000000000;stroke-opacity:1;stroke-miterlimit:4;stroke-dasharray:none"
   inkscape:connector-curvature="0"
   d="m 62.933268,91.467892 -9.135047,-7.157244 c 3.070512,-2.316543 6.130097,-4.644013 9.200609,-6.960556 0,0 -0.04371,2.808262 -0.06556,4.20693 3.704283,-0.557282 4.796992,-0.557282 7.889359,-3.431107 1.158271,1.595355 2.305616,3.201638 3.463887,4.796993 -4.458252,3.879117 -5.572816,4.075804 -11.418809,4.534742 0.02186,1.333105 0.06556,4.010242 0.06556,4.010242 z"
   id="path3084-4" /><path
   style="fill:#008000;fill-opacity:1;stroke:#ffffff;stroke-width:1.00000003000000000;stroke-opacity:1;stroke-miterlimit:4;stroke-dasharray:none"
   inkscape:connector-curvature="0"
   d="m 49.602218,61.363759 7.200952,9.364516 c 0,0 -2.720845,0 -4.086731,0 -0.284105,3.715211 1.901313,5.900629 3.015877,7.976776 -1.54072,1.158272 -3.092367,2.316543 -4.633087,3.474815 -3.037731,-3.365544 -4.032096,-5.33242 -4.501961,-11.451591 -1.333105,0.07649 -3.999315,0.229469 -3.999315,0.229469 l 7.004265,-9.593985 z"
   id="path3091-9-4" /><path
   style="fill:#008000;fill-opacity:1;stroke:#ffffff;stroke-width:1.00000003000000000;stroke-opacity:1;stroke-miterlimit:4;stroke-dasharray:none"
   inkscape:connector-curvature="0"
   d="m 51.798563,58.937945 c 4.46918,-3.507596 6.359567,-4.567523 11.331392,-4.512888 0,-1.311251 0,-3.933752 0,-3.933752 l 9.484715,6.938702 c 0,0 -6.556254,4.775138 -9.681402,7.168171 -0.109271,-1.322178 0,-2.502304 0,-3.966534 -3.442033,0.01093 -4.775138,1.475157 -7.550619,3.048658 -1.300324,-1.529792 -2.283762,-3.212564 -3.584086,-4.742357 z"
   id="path3098-7" /><path
   style="fill:#008000;fill-opacity:1;stroke:#ffffff;stroke-width:1.00000003000000000;stroke-opacity:1;stroke-miterlimit:4;stroke-dasharray:none"
   inkscape:connector-curvature="0"
   d="m 75.226244,59.626352 c -1.584428,1.158272 -3.45296,2.524158 -5.037388,3.682429 2.043365,2.48045 3.299981,4.458253 3.2672,7.616182 -1.464231,0 -4.196003,0.03278 -4.196003,0.03278 l 7.255588,9.757892 c 0,0 4.99368,-6.621817 7.310223,-9.823454 -1.311251,0 -2.961241,-0.04371 -4.272492,-0.04371 0.196687,-4.05395 -0.710261,-7.332077 -4.327128,-11.222121 z"
   id="path3105-2" /><path
   sodipodi:type="arc"
   style="fill:#000000;fill-opacity:1"
   id="path4033"
   sodipodi:cx="64.15448"
   sodipodi:cy="66.176758"
   sodipodi:rx="1.3039528"
   sodipodi:ry="1.3039528"
   d="m 65.458433,66.176758 a 1.3039528,1.3039528 0 1 1 -2.607906,0 1.3039528,1.3039528 0 1 1 2.607906,0 z"
   transform="translate(-1.0560092,4.3931513)" /><path
   d="m 29.300071,50.920051 -9.052099,7.092254 c 3.042631,2.295509 6.074435,4.601845 9.117066,6.897354 0,0 -0.04331,-2.782763 -0.06497,-4.16873 3.670648,0.552221 4.753435,0.552221 7.817722,3.399951 1.147754,-1.580869 2.284681,-3.172566 3.432435,-4.753435 -4.417771,-3.843894 -5.522214,-4.038796 -11.315124,-4.493566 0.02166,-1.321 0.06497,-3.973828 0.06497,-3.973828 z"
   id="path3128-3"
   inkscape:connector-curvature="0"
   style="fill:#0000ff;fill-opacity:1;stroke:#ffffff;stroke-width:1.00000003000000000;stroke-opacity:1;stroke-miterlimit:4;stroke-dasharray:none" /><path
   d="m 16.09007,80.750832 7.135566,-9.279484 c 0,0 -2.69614,0 -4.049623,0 -0.281525,-3.681476 1.884049,-5.84705 2.988492,-7.904345 -1.52673,-1.147755 -3.064287,-2.295509 -4.591017,-3.443263 -3.010148,3.334984 -3.995484,5.284001 -4.461083,11.347608 -1.321,-0.07579 -3.963,-0.227385 -3.963,-0.227385 l 6.940665,9.506869 z"
   id="path3135-6"
   inkscape:connector-curvature="0"
   style="fill:#0000ff;fill-opacity:1;stroke:#ffffff;stroke-width:1.00000003000000000;stroke-opacity:1;stroke-miterlimit:4;stroke-dasharray:none" /><path
   d="m 18.266472,83.15462 c 4.428598,3.475746 6.30182,4.526049 11.228501,4.47191 0,1.299344 0,3.898033 0,3.898033 l 9.398591,-6.875697 c 0,0 -6.496722,-4.73178 -9.593493,-7.103083 -0.108279,1.310172 0,2.479582 0,3.930517 -3.410779,-0.01083 -4.731779,-1.461763 -7.482058,-3.020976 -1.288517,1.515902 -2.263025,3.183394 -3.551541,4.699296 z"
   id="path3142-6"
   inkscape:connector-curvature="0"
   style="fill:#0000ff;fill-opacity:1;stroke:#ffffff;stroke-width:1.00000003000000000;stroke-opacity:1;stroke-miterlimit:4;stroke-dasharray:none" /><path
   d="m 41.481425,82.472464 c -1.570041,-1.147755 -3.421607,-2.501238 -4.991648,-3.648992 2.024811,-2.457927 3.270016,-4.417771 3.237533,-7.547026 -1.450935,0 -4.157902,-0.03248 -4.157902,-0.03248 l 7.189705,-9.669288 c 0,0 4.948337,6.561689 7.243846,9.734255 -1.299345,0 -2.934353,0.04331 -4.233698,0.04331 0.194902,4.01714 -0.703811,7.265501 -4.287836,11.120223 z"
   id="path3149-2"
   inkscape:connector-curvature="0"
   style="fill:#0000ff;fill-opacity:1;stroke:#ffffff;stroke-width:1.00000003000000000;stroke-opacity:1;stroke-miterlimit:4;stroke-dasharray:none" /><path
   transform="translate(-36.979233,3.4817298)"
   sodipodi:type="arc"
   style="fill:#000000;fill-opacity:1"
   id="path4033-9-4"
   sodipodi:cx="64.15448"
   sodipodi:cy="66.176758"
   sodipodi:rx="1.3039528"
   sodipodi:ry="1.3039528"
   d="m 65.458433,66.176758 a 1.3039528,1.3039528 0 1 1 -2.607906,0 1.3039528,1.3039528 0 1 1 2.607906,0 z" /><path
   transform="translate(-32.826432,3.4780838)"
   sodipodi:type="arc"
   style="fill:#000000;fill-opacity:1"
   id="path4033-9-3"
   sodipodi:cx="64.15448"
   sodipodi:cy="66.176758"
   sodipodi:rx="1.3039528"
   sodipodi:ry="1.3039528"
   d="m 65.458433,66.176758 a 1.3039528,1.3039528 0 1 1 -2.607906,0 1.3039528,1.3039528 0 1 1 2.607906,0 z" /><path
   transform="translate(-34.854908,6.9818128)"
   sodipodi:type="arc"
   style="fill:#000000;fill-opacity:1"
   id="path4033-9-1"
   sodipodi:cx="64.15448"
   sodipodi:cy="66.176758"
   sodipodi:rx="1.3039528"
   sodipodi:ry="1.3039528"
   d="m 65.458433,66.176758 a 1.3039528,1.3039528 0 1 1 -2.607906,0 1.3039528,1.3039528 0 1 1 2.607906,0 z" /><path
   style="fill:#000000;fill-opacity:1;stroke:none"
   d="m 45.804616,35.808255 -6.77695,7.241143 4.222261,-1.053516 -0.02701,11.657843 5.098192,0.01665 -0.184407,-11.698763 4.168249,1.009148 z"
   id="path3263"
   inkscape:connector-curvature="0"
   sodipodi:nodetypes="cccccccc" /></svg>