<?xml version="1.0" encoding="UTF-8" standalone="no"?>
<!-- Copyright 2014.  All rights reserved.  Used with permission for Baseflight Configurator -->

<svg
   xmlns:dc="http://purl.org/dc/elements/1.1/"
   xmlns:cc="http://creativecommons.org/ns#"
   xmlns:rdf="http://www.w3.org/1999/02/22-rdf-syntax-ns#"
   xmlns:svg="http://www.w3.org/2000/svg"
   xmlns="http://www.w3.org/2000/svg"
   xmlns:sodipodi="http://sodipodi.sourceforge.net/DTD/sodipodi-0.dtd"
   xmlns:inkscape="http://www.inkscape.org/namespaces/inkscape"
   version="1.1"
   id="Y4-mix"
   x="0px"
   y="0px"
   width="98.02px"
   height="117.85px"
   viewBox="8.18 10.46 98.02 117.85"
   xml:space="preserve"
   inkscape:version="0.48.5 r10040"
   sodipodi:docname="y4.svg"><metadata
   id="metadata33"><rdf:RDF><cc:Work
       rdf:about=""><dc:format>image/svg+xml</dc:format><dc:type
         rdf:resource="http://purl.org/dc/dcmitype/StillImage" /></cc:Work></rdf:RDF></metadata><defs
   id="defs31" /><sodipodi:namedview
   pagecolor="#ffffff"
   bordercolor="#666666"
   borderopacity="1"
   objecttolerance="10"
   gridtolerance="10"
   guidetolerance="10"
   inkscape:pageopacity="0"
   inkscape:pageshadow="2"
   inkscape:window-width="678"
   inkscape:window-height="480"
   id="namedview29"
   showgrid="false"
   inkscape:zoom="2.0025456"
   inkscape:cx="49.009997"
   inkscape:cy="48.604857"
   inkscape:window-x="237"
   inkscape:window-y="1553"
   inkscape:window-maximized="0"
   inkscape:current-layer="Y4-mix" />





<path
   d="m 56.841602,87.533801 -9.052099,7.092254 c 3.042631,2.295509 6.074435,4.601845 9.117066,6.897355 0,0 -0.04331,-2.782764 -0.06497,-4.168731 3.670648,0.552221 4.753435,0.552221 7.817722,3.399951 1.147754,-1.580869 2.284681,-3.172566 3.432435,-4.753435 -4.417771,-3.843894 -5.522214,-4.038796 -11.315124,-4.493566 0.02166,-1.321 0.06497,-3.973828 0.06497,-3.973828 z"
   id="path3128-3"
   inkscape:connector-curvature="0"
   style="fill:#0000ff;fill-opacity:1;stroke:#000000;stroke-width:0.01082787;stroke-opacity:0" /><path
   d="m 56.841602,87.533801 -9.052099,7.092254 c 3.042631,2.295509 6.074435,4.601845 9.117066,6.897355 0,0 -0.04331,-2.782764 -0.06497,-4.168731 3.670648,0.552221 4.753435,0.552221 7.817722,3.399951 1.147754,-1.580869 2.284681,-3.172566 3.432435,-4.753435 -4.417771,-3.843894 -5.522214,-4.038796 -11.315124,-4.493566 0.02166,-1.321 0.06497,-3.973828 0.06497,-3.973828 z"
   id="path3130-2"
   inkscape:connector-curvature="0"
   style="fill:#0000ff;fill-opacity:1;stroke:none" /><path
   d="m 43.631601,117.36458 7.135566,-9.27948 c 0,0 -2.69614,0 -4.049623,0 -0.281525,-3.68148 1.884049,-5.84705 2.988492,-7.90435 -1.52673,-1.147752 -3.064287,-2.295506 -4.591017,-3.44326 -3.010148,3.33498 -3.995484,5.284 -4.461083,11.34761 -1.321,-0.0758 -3.963,-0.22739 -3.963,-0.22739 l 6.940665,9.50687 z"
   id="path3135-6"
   inkscape:connector-curvature="0"
   style="fill:#0000ff;fill-opacity:1;stroke:#000000;stroke-width:0.01082787;stroke-opacity:0" /><path
   d="m 43.631601,117.36458 7.135566,-9.27948 -4.049623,0 c -0.281525,-3.68148 1.884049,-5.84705 2.988492,-7.90435 -1.52673,-1.147752 -3.064287,-2.295506 -4.591017,-3.44326 -3.010148,3.33498 -3.995484,5.284 -4.461083,11.34761 l -3.963,-0.22739 6.940665,9.50687 z"
   id="path3137-8"
   inkscape:connector-curvature="0"
   style="fill:#0000ff;fill-opacity:1;stroke:#ffffff;stroke-opacity:1" /><path
   d="m 45.808003,119.76837 c 4.428598,3.47575 6.30182,4.52605 11.228501,4.47191 0,1.29934 0,3.89803 0,3.89803 l 9.398591,-6.87569 c 0,0 -6.496722,-4.73178 -9.593493,-7.10309 -0.108279,1.31018 0,2.47959 0,3.93052 -3.410779,-0.0108 -4.731779,-1.46176 -7.482058,-3.02098 -1.288517,1.51591 -2.263025,3.1834 -3.551541,4.6993 z"
   id="path3142-6"
   inkscape:connector-curvature="0"
   style="fill:#0000ff;fill-opacity:1;stroke:#000000;stroke-width:0.01082787;stroke-opacity:0" /><path
   d="m 45.808003,119.76837 c 4.428598,3.47575 6.30182,4.52605 11.228501,4.47191 l 0,3.89803 9.398591,-6.87569 c 0,0 -6.496722,-4.73178 -9.593493,-7.10309 -0.108279,1.31018 0,2.47959 0,3.93052 -3.410779,-0.0108 -4.731779,-1.46176 -7.482058,-3.02098 -1.288517,1.51591 -2.263025,3.1834 -3.551541,4.6993 z"
   id="path3144-1"
   inkscape:connector-curvature="0"
   style="fill:#0000ff;fill-opacity:1;stroke:#ffffff;stroke-opacity:1" /><path
   d="m 69.022956,119.08621 c -1.570041,-1.14775 -3.421607,-2.50123 -4.991648,-3.64899 2.024811,-2.45792 3.270016,-4.41777 3.237533,-7.54702 -1.450935,0 -4.157902,-0.0325 -4.157902,-0.0325 l 7.189705,-9.669285 c 0,0 4.948337,6.561685 7.243846,9.734255 -1.299345,0 -2.934353,0.0433 -4.233698,0.0433 0.194902,4.01714 -0.703811,7.2655 -4.287836,11.12022 z"
   id="path3149-2"
   inkscape:connector-curvature="0"
   style="fill:#0000ff;fill-opacity:1;stroke:#000000;stroke-width:0.01082787;stroke-opacity:0" /><path
   d="m 69.022956,119.08621 c -1.570041,-1.14775 -3.421607,-2.50123 -4.991648,-3.64899 2.024811,-2.45792 3.270016,-4.41777 3.237533,-7.54702 -1.450935,0 -4.157902,-0.0325 -4.157902,-0.0325 l 7.189705,-9.669285 c 0,0 4.948337,6.561685 7.243846,9.734255 -1.299345,0 -2.934353,0.0433 -4.233698,0.0433 0.194902,4.01714 -0.703811,7.2655 -4.287836,11.12022 z"
   id="path3151-7"
   inkscape:connector-curvature="0"
   style="fill:#0000ff;fill-opacity:1;stroke:#ffffff;stroke-opacity:1" /><path
   transform="translate(-9.4377031,40.095486)"
   sodipodi:type="arc"
   style="fill:#000000;fill-opacity:1"
   id="path4033-9-4"
   sodipodi:cx="64.15448"
   sodipodi:cy="66.176758"
   sodipodi:rx="1.3039528"
   sodipodi:ry="1.3039528"
   d="m 65.458433,66.176758 a 1.3039528,1.3039528 0 1 1 -2.607906,0 1.3039528,1.3039528 0 1 1 2.607906,0 z" /><path
   transform="translate(-5.284901,40.09184)"
   sodipodi:type="arc"
   style="fill:#000000;fill-opacity:1"
   id="path4033-9-3"
   sodipodi:cx="64.15448"
   sodipodi:cy="66.176758"
   sodipodi:rx="1.3039528"
   sodipodi:ry="1.3039528"
   d="m 65.458433,66.176758 a 1.3039528,1.3039528 0 1 1 -2.607906,0 1.3039528,1.3039528 0 1 1 2.607906,0 z" /><path
   transform="translate(-7.3133781,43.595569)"
   sodipodi:type="arc"
   style="fill:#000000;fill-opacity:1"
   id="path4033-9-1"
   sodipodi:cx="64.15448"
   sodipodi:cy="66.176758"
   sodipodi:rx="1.3039528"
   sodipodi:ry="1.3039528"
   d="m 65.458433,66.176758 a 1.3039528,1.3039528 0 1 1 -2.607906,0 1.3039528,1.3039528 0 1 1 2.607906,0 z" /><path
   style="fill:#000000;fill-opacity:1;stroke:none"
   d="m 57.91838,37.149798 -6.77695,9.727457 3.96147,-1.284856 -0.124806,10.086279 5.326384,-0.01023 0.07638,-10.10865 3.711866,1.355649 z"
   id="path3263"
   inkscape:connector-curvature="0"
   sodipodi:nodetypes="cccccccc" /><path
   d="m 84.806009,11.131051 -9.052099,7.092254 c 3.042631,2.295509 6.074435,4.601845 9.117066,6.897354 0,0 -0.04331,-2.782763 -0.06497,-4.16873 3.670648,0.552221 4.753435,0.552221 7.817722,3.399951 1.147754,-1.580869 2.284681,-3.172566 3.432435,-4.753435 -4.417771,-3.843894 -5.522214,-4.038796 -11.315124,-4.493566 0.02166,-1.321 0.06497,-3.973828 0.06497,-3.973828 z"
   id="path3128"
   inkscape:connector-curvature="0"
   style="fill:#0000ff;fill-opacity:1;stroke:#000000;stroke-width:0.01082787;stroke-opacity:0" /><path
   d="m 84.806009,11.131051 -9.052099,7.092254 c 3.042631,2.295509 6.074435,4.601845 9.117066,6.897354 0,0 -0.04331,-2.782763 -0.06497,-4.16873 3.670648,0.552221 4.753435,0.552221 7.817722,3.399951 1.147754,-1.580869 2.284681,-3.172566 3.432435,-4.753435 -4.417771,-3.843894 -5.522214,-4.038796 -11.315124,-4.493566 0.02166,-1.321 0.06497,-3.973828 0.06497,-3.973828 z"
   id="path3130"
   inkscape:connector-curvature="0"
   style="fill:#0000ff;fill-opacity:1;stroke:#ffffff;stroke-opacity:1" /><path
   d="m 71.596008,40.961832 7.135566,-9.279484 c 0,0 -2.69614,0 -4.049623,0 -0.281525,-3.681476 1.884049,-5.84705 2.988492,-7.904345 -1.52673,-1.147755 -3.064287,-2.295509 -4.591017,-3.443263 -3.010148,3.334984 -3.995484,5.284001 -4.461083,11.347608 -1.321,-0.07579 -3.963,-0.227385 -3.963,-0.227385 l 6.940665,9.506869 z"
   id="path3135"
   inkscape:connector-curvature="0"
   style="fill:#0000ff;fill-opacity:1;stroke:#000000;stroke-width:0.01082787;stroke-opacity:0" /><path
   d="m 71.596008,40.961832 7.135566,-9.279484 -4.049623,0 c -0.281525,-3.681476 1.884049,-5.84705 2.988492,-7.904345 -1.52673,-1.147755 -3.064287,-2.295509 -4.591017,-3.443263 -3.010148,3.334984 -3.995484,5.284001 -4.461083,11.347608 l -3.963,-0.227385 6.940665,9.506869 z"
   id="path3137"
   inkscape:connector-curvature="0"
   style="fill:#0000ff;fill-opacity:1;stroke:#ffffff;stroke-opacity:1" /><path
   d="m 73.77241,43.36562 c 4.428598,3.475746 6.30182,4.526049 11.228501,4.47191 0,1.299344 0,3.898033 0,3.898033 l 9.398591,-6.875697 c 0,0 -6.496722,-4.73178 -9.593493,-7.103083 -0.108279,1.310172 0,2.479582 0,3.930517 -3.410779,-0.01083 -4.731779,-1.461763 -7.482058,-3.020976 -1.288517,1.515902 -2.263025,3.183394 -3.551541,4.699296 z"
   id="path3142"
   inkscape:connector-curvature="0"
   style="fill:#0000ff;fill-opacity:1;stroke:#000000;stroke-width:0.01082787;stroke-opacity:0" /><path
   d="m 73.77241,43.36562 c 4.428598,3.475746 6.30182,4.526049 11.228501,4.47191 l 0,3.898033 9.398591,-6.875697 c 0,0 -6.496722,-4.73178 -9.593493,-7.103083 -0.108279,1.310172 0,2.479582 0,3.930517 -3.410779,-0.01083 -4.731779,-1.461763 -7.482058,-3.020976 -1.288517,1.515902 -2.263025,3.183394 -3.551541,4.699296 z"
   id="path3144"
   inkscape:connector-curvature="0"
   style="fill:#0000ff;fill-opacity:1;stroke:#ffffff;stroke-opacity:1" /><path
   d="m 96.987363,42.683464 c -1.570041,-1.147754 -3.421607,-2.501238 -4.991648,-3.648992 2.024811,-2.457927 3.270016,-4.417771 3.237533,-7.547026 -1.450935,0 -4.157902,-0.03248 -4.157902,-0.03248 l 7.189705,-9.669288 c 0,0 4.948339,6.561689 7.243849,9.734255 -1.29935,0 -2.93436,0.04331 -4.2337,0.04331 0.1949,4.01714 -0.70381,7.265501 -4.287837,11.120223 z"
   id="path3149"
   inkscape:connector-curvature="0"
   style="fill:#0000ff;fill-opacity:1;stroke:#000000;stroke-width:0.01082787;stroke-opacity:0" /><path
   d="m 96.987363,42.683464 c -1.570041,-1.147754 -3.421607,-2.501238 -4.991648,-3.648992 2.024811,-2.457927 3.270016,-4.417771 3.237533,-7.547026 -1.450935,0 -4.157902,-0.03248 -4.157902,-0.03248 l 7.189705,-9.669288 c 0,0 4.948339,6.561689 7.243849,9.734255 -1.29935,0 -2.93436,0.04331 -4.2337,0.04331 0.1949,4.01714 -0.70381,7.265501 -4.287837,11.120223 z"
   id="path3151"
   inkscape:connector-curvature="0"
   style="fill:#0000ff;fill-opacity:1;stroke:#ffffff;stroke-opacity:1" /><path
   transform="translate(18.624224,-34.564749)"
   sodipodi:type="arc"
   style="fill:#000000;fill-opacity:1"
   id="path4033-9"
   sodipodi:cx="64.15448"
   sodipodi:cy="66.176758"
   sodipodi:rx="1.3039528"
   sodipodi:ry="1.3039528"
   d="m 65.458433,66.176758 a 1.3039528,1.3039528 0 1 1 -2.607906,0 1.3039528,1.3039528 0 1 1 2.607906,0 z" /><path
   transform="translate(22.937581,-34.673622)"
   sodipodi:type="arc"
   style="fill:#000000;fill-opacity:1"
   id="path4033-9-5"
   sodipodi:cx="64.15448"
   sodipodi:cy="66.176758"
   sodipodi:rx="1.3039528"
   sodipodi:ry="1.3039528"
   d="m 65.458433,66.176758 a 1.3039528,1.3039528 0 1 1 -2.607906,0 1.3039528,1.3039528 0 1 1 2.607906,0 z" /><path
   style="fill:#008000;fill-opacity:1;stroke:#000000;stroke-width:0.01092709;stroke-opacity:0"
   inkscape:connector-curvature="0"
   d="m 28.874664,51.921597 -9.135047,-7.157244 c 3.070513,-2.316543 6.130098,-4.644013 9.20061,-6.960556 0,0 -0.04371,2.808262 -0.06556,4.20693 3.704284,-0.557282 4.796993,-0.557282 7.889359,-3.431107 1.158272,1.595355 2.305616,3.201638 3.463888,4.796993 -4.458253,3.879117 -5.572816,4.075804 -11.418809,4.534742 0.02185,1.333105 0.06556,4.010242 0.06556,4.010242 z"
   id="path3084" /><path
   style="fill:#008000;fill-opacity:1;stroke:#ffffff;stroke-opacity:1;stroke-width:1.00000003;stroke-miterlimit:4;stroke-dasharray:none"
   inkscape:connector-curvature="0"
   d="m 28.874664,51.921597 -9.135047,-7.157244 c 3.070513,-2.316543 6.130098,-4.644013 9.20061,-6.960556 0,0 -0.04371,2.808262 -0.06556,4.20693 3.704284,-0.557282 4.796993,-0.557282 7.889359,-3.431107 1.158272,1.595355 2.305616,3.201638 3.463888,4.796993 -4.458253,3.879117 -5.572816,4.075804 -11.418809,4.534742 0.02185,1.333105 0.06556,4.010242 0.06556,4.010242 z"
   id="path3086" /><path
   style="fill:#008000;fill-opacity:1;stroke:#000000;stroke-width:0.01092709;stroke-opacity:0"
   inkscape:connector-curvature="0"
   d="m 15.543615,21.817464 7.200952,9.364516 c 0,0 -2.720845,0 -4.086732,0 -0.284104,3.715211 1.901314,5.900629 3.015877,7.976776 -1.54072,1.158272 -3.092366,2.316543 -4.633086,3.474815 C 14.002895,39.268027 13.00853,37.301151 12.538665,31.18198 11.20556,31.25847 8.53935,31.411449 8.53935,31.411449 l 7.004265,-9.593985 z"
   id="path3091-9" /><path
   style="fill:#008000;fill-opacity:1;stroke:#ffffff;stroke-opacity:1;stroke-width:1.00000003;stroke-miterlimit:4;stroke-dasharray:none"
   inkscape:connector-curvature="0"
   d="m 15.543615,21.817464 7.200952,9.364516 -4.086732,0 c -0.284104,3.715211 1.901314,5.900629 3.015877,7.976776 -1.54072,1.158272 -3.092366,2.316543 -4.633086,3.474815 -3.037731,-3.365544 -4.032096,-5.33242 -4.501961,-11.451591 l -3.999315,0.229469 7.004265,-9.593985 z"
   id="path3093" /><path
   style="fill:#008000;fill-opacity:1;stroke:#000000;stroke-width:0.01092709;stroke-opacity:0"
   inkscape:connector-curvature="0"
   d="m 17.73996,19.39165 c 4.46918,-3.507596 6.359566,-4.567523 11.331392,-4.512888 0,-1.311251 0,-3.933752 0,-3.933752 l 9.484714,6.938702 c 0,0 -6.556254,4.775138 -9.681402,7.168171 -0.10927,-1.322178 0,-2.502304 0,-3.966534 -3.442033,0.01093 -4.775138,1.475157 -7.550619,3.048658 -1.300323,-1.529792 -2.283762,-3.212564 -3.584085,-4.742357 z"
   id="path3098" /><path
   style="fill:#008000;fill-opacity:1;stroke:#ffffff;stroke-opacity:1;stroke-width:1.00000003;stroke-miterlimit:4;stroke-dasharray:none"
   inkscape:connector-curvature="0"
   d="m 17.73996,19.39165 c 4.46918,-3.507596 6.359566,-4.567523 11.331392,-4.512888 l 0,-3.933752 9.484714,6.938702 c 0,0 -6.556254,4.775138 -9.681402,7.168171 -0.10927,-1.322178 0,-2.502304 0,-3.966534 -3.442033,0.01093 -4.775138,1.475157 -7.550619,3.048658 -1.300323,-1.529792 -2.283762,-3.212564 -3.584085,-4.742357 z"
   id="path3100-8" /><path
   style="fill:#008000;fill-opacity:1;stroke:#000000;stroke-width:0.01092709;stroke-opacity:0"
   inkscape:connector-curvature="0"
   d="m 41.167641,20.080057 c -1.584428,1.158272 -3.452961,2.524158 -5.037389,3.682429 2.043366,2.48045 3.299981,4.458253 3.2672,7.616182 -1.46423,0 -4.196002,0.03278 -4.196002,0.03278 l 7.255587,9.757892 c 0,0 4.99368,-6.621817 7.310224,-9.823454 -1.311251,0 -2.961242,-0.04371 -4.272493,-0.04371 0.196688,-4.05395 -0.71026,-7.332077 -4.327127,-11.222121 z"
   id="path3105" /><path
   style="fill:#008000;fill-opacity:1;stroke:#ffffff;stroke-opacity:1;stroke-width:1.00000003;stroke-miterlimit:4;stroke-dasharray:none"
   inkscape:connector-curvature="0"
   d="m 41.167641,20.080057 c -1.584428,1.158272 -3.452961,2.524158 -5.037389,3.682429 2.043366,2.48045 3.299981,4.458253 3.2672,7.616182 -1.46423,0 -4.196002,0.03278 -4.196002,0.03278 l 7.255587,9.757892 c 0,0 4.99368,-6.621817 7.310224,-9.823454 -1.311251,0 -2.961242,-0.04371 -4.272493,-0.04371 0.196688,-4.05395 -0.71026,-7.332077 -4.327127,-11.222121 z"
   id="path3107" /><path
   transform="translate(-37.29068,-37.017029)"
   sodipodi:type="arc"
   style="fill:#000000;fill-opacity:1"
   id="path4033-9-4-2"
   sodipodi:cx="64.15448"
   sodipodi:cy="66.176758"
   sodipodi:rx="1.3039528"
   sodipodi:ry="1.3039528"
   d="m 65.458433,66.176758 a 1.3039528,1.3039528 0 1 1 -2.607906,0 1.3039528,1.3039528 0 1 1 2.607906,0 z" /><path
   transform="translate(-33.137878,-37.020675)"
   sodipodi:type="arc"
   style="fill:#000000;fill-opacity:1"
   id="path4033-9-3-3"
   sodipodi:cx="64.15448"
   sodipodi:cy="66.176758"
   sodipodi:rx="1.3039528"
   sodipodi:ry="1.3039528"
   d="m 65.458433,66.176758 a 1.3039528,1.3039528 0 1 1 -2.607906,0 1.3039528,1.3039528 0 1 1 2.607906,0 z" /><path
   transform="translate(-37.29675,-33.321353)"
   sodipodi:type="arc"
   style="fill:#000000;fill-opacity:1"
   id="path4033-9-1-3"
   sodipodi:cx="64.15448"
   sodipodi:cy="66.176758"
   sodipodi:rx="1.3039528"
   sodipodi:ry="1.3039528"
   d="m 65.458433,66.176758 a 1.3039528,1.3039528 0 1 1 -2.607906,0 1.3039528,1.3039528 0 1 1 2.607906,0 z" /><path
   transform="translate(-33.10501,-33.312882)"
   sodipodi:type="arc"
   style="fill:#000000;fill-opacity:1"
   id="path4033-9-1-3-3"
   sodipodi:cx="64.15448"
   sodipodi:cy="66.176758"
   sodipodi:rx="1.3039528"
   sodipodi:ry="1.3039528"
   d="m 65.458433,66.176758 a 1.3039528,1.3039528 0 1 1 -2.607906,0 1.3039528,1.3039528 0 1 1 2.607906,0 z" /><path
   style="fill:#008000;fill-opacity:1;stroke:#000000;stroke-width:0.01092709;stroke-opacity:0"
   inkscape:connector-curvature="0"
   d="m 56.839072,101.35868 -9.135047,-7.157249 c 3.070512,-2.316543 6.130097,-4.644013 9.20061,-6.960556 0,0 -0.04371,2.808262 -0.06556,4.20693 3.704284,-0.557282 4.796993,-0.557282 7.889359,-3.431107 1.158272,1.595355 2.305616,3.201638 3.463888,4.796993 -4.458253,3.879117 -5.572816,4.075804 -11.418809,4.534742 0.02185,1.333105 0.06556,4.010247 0.06556,4.010247 z"
   id="path3084-4" /><path
   style="fill:#008000;fill-opacity:1;stroke:#ffffff;stroke-opacity:1;stroke-width:1.00000003000000000;stroke-miterlimit:4;stroke-dasharray:none"
   inkscape:connector-curvature="0"
   d="m 56.839072,101.35868 -9.135047,-7.157249 c 3.070512,-2.316543 6.130097,-4.644013 9.20061,-6.960556 0,0 -0.04371,2.808262 -0.06556,4.20693 3.704284,-0.557282 4.796993,-0.557282 7.889359,-3.431107 1.158272,1.595355 2.305616,3.201638 3.463888,4.796993 -4.458253,3.879117 -5.572816,4.075804 -11.418809,4.534742 0.02185,1.333105 0.06556,4.010247 0.06556,4.010247 z"
   id="path3086-8" /><path
   style="fill:#008000;fill-opacity:1;stroke:#000000;stroke-width:0.01092709;stroke-opacity:0"
   inkscape:connector-curvature="0"
   d="m 43.508022,71.254542 7.200953,9.364516 c 0,0 -2.720846,0 -4.086732,0 -0.284104,3.715211 1.901314,5.900629 3.015877,7.976776 -1.54072,1.158272 -3.092367,2.316543 -4.633086,3.474815 -3.037731,-3.365544 -4.032097,-5.33242 -4.501961,-11.451591 -1.333105,0.07649 -3.999315,0.229469 -3.999315,0.229469 l 7.004264,-9.593985 z"
   id="path3091-9-4" /><path
   style="fill:#008000;fill-opacity:1;stroke:#ffffff;stroke-opacity:1;stroke-width:1.00000003;stroke-miterlimit:4;stroke-dasharray:none"
   inkscape:connector-curvature="0"
   d="m 43.508022,71.254542 7.200953,9.364516 -4.086732,0 c -0.284104,3.715211 1.901314,5.900629 3.015877,7.976776 -1.54072,1.158272 -3.092367,2.316543 -4.633086,3.474815 -3.037731,-3.365544 -4.032097,-5.33242 -4.501961,-11.451591 l -3.999315,0.229469 7.004264,-9.593985 z"
   id="path3093-5" /><path
   style="fill:#008000;fill-opacity:1;stroke:#000000;stroke-width:0.01092709;stroke-opacity:0"
   inkscape:connector-curvature="0"
   d="m 45.704367,68.828728 c 4.46918,-3.507596 6.359567,-4.567523 11.331393,-4.512888 0,-1.311251 0,-3.933752 0,-3.933752 l 9.484714,6.938702 c 0,0 -6.556254,4.775138 -9.681402,7.168171 -0.109271,-1.322178 0,-2.502304 0,-3.966534 -3.442033,0.01093 -4.775138,1.475157 -7.550619,3.048658 -1.300324,-1.529792 -2.283762,-3.212564 -3.584086,-4.742357 z"
   id="path3098-7" /><path
   style="fill:#008000;fill-opacity:1;stroke:#ffffff;stroke-opacity:1;stroke-width:1.00000003;stroke-miterlimit:4;stroke-dasharray:none"
   inkscape:connector-curvature="0"
   d="m 45.704367,68.828728 c 4.46918,-3.507596 6.359567,-4.567523 11.331393,-4.512888 l 0,-3.933752 9.484714,6.938702 c 0,0 -6.556254,4.775138 -9.681402,7.168171 -0.109271,-1.322178 0,-2.502304 0,-3.966534 -3.442033,0.01093 -4.775138,1.475157 -7.550619,3.048658 -1.300324,-1.529792 -2.283762,-3.212564 -3.584086,-4.742357 z"
   id="path3100-8-1" /><path
   style="fill:#008000;fill-opacity:1;stroke:#000000;stroke-width:0.01092709;stroke-opacity:0"
   inkscape:connector-curvature="0"
   d="m 69.132048,69.517135 c -1.584428,1.158272 -3.45296,2.524158 -5.037388,3.682429 2.043366,2.48045 3.299981,4.458253 3.2672,7.616182 -1.46423,0 -4.196003,0.03278 -4.196003,0.03278 l 7.255588,9.757892 c 0,0 4.99368,-6.621817 7.310223,-9.823454 -1.311251,0 -2.961241,-0.04371 -4.272492,-0.04371 0.196688,-4.05395 -0.710261,-7.332077 -4.327128,-11.222121 z"
   id="path3105-2" /><path
   style="fill:#008000;fill-opacity:1;stroke:#ffffff;stroke-opacity:1;stroke-width:1.00000003;stroke-miterlimit:4;stroke-dasharray:none"
   inkscape:connector-curvature="0"
   d="m 69.132048,69.517135 c -1.584428,1.158272 -3.45296,2.524158 -5.037388,3.682429 2.043366,2.48045 3.299981,4.458253 3.2672,7.616182 -1.46423,0 -4.196003,0.03278 -4.196003,0.03278 l 7.255588,9.757892 c 0,0 4.99368,-6.621817 7.310223,-9.823454 -1.311251,0 -2.961241,-0.04371 -4.272492,-0.04371 0.196688,-4.05395 -0.710261,-7.332077 -4.327128,-11.222121 z"
   id="path3107-7" /><path
   sodipodi:type="arc"
   style="fill:#000000;fill-opacity:1"
   id="path4033"
   sodipodi:cx="64.15448"
   sodipodi:cy="66.176758"
   sodipodi:rx="1.3039528"
   sodipodi:ry="1.3039528"
   d="m 65.458433,66.176758 a 1.3039528,1.3039528 0 1 1 -2.607906,0 1.3039528,1.3039528 0 1 1 2.607906,0 z"
   transform="translate(-6.8583354,14.614331)" /></svg>